<svg width="332" height="475" viewBox="0 0 332 475" fill="none" xmlns="http://www.w3.org/2000/svg">
<rect width="332" height="475" rx="21" fill="white"/>
<path d="M256.734 145.391C256.734 145.508 256.684 145.641 256.582 145.789C256.488 145.93 256.34 146 256.137 146H255.434C254.965 146 254.562 145.93 254.227 145.789C253.898 145.641 253.621 145.453 253.395 145.227C253.309 146.047 253.098 146.785 252.762 147.441C252.434 148.098 251.996 148.66 251.449 149.129C250.91 149.605 250.277 149.973 249.551 150.23C248.824 150.488 248.023 150.617 247.148 150.617C245.953 150.617 244.957 150.445 244.16 150.102C243.363 149.758 242.727 149.312 242.25 148.766C241.781 148.219 241.449 147.605 241.254 146.926C241.059 146.254 240.961 145.59 240.961 144.934C240.961 144.23 241.082 143.52 241.324 142.801C241.566 142.082 241.91 141.414 242.355 140.797L244.465 141.992C244.129 142.492 243.887 142.988 243.738 143.48C243.598 143.965 243.527 144.449 243.527 144.934C243.527 145.254 243.578 145.598 243.68 145.965C243.789 146.324 243.98 146.66 244.254 146.973C244.535 147.285 244.914 147.547 245.391 147.758C245.875 147.977 246.492 148.086 247.242 148.086C247.719 148.086 248.18 148.02 248.625 147.887C249.07 147.754 249.465 147.543 249.809 147.254C250.152 146.973 250.43 146.609 250.641 146.164C250.852 145.719 250.957 145.191 250.957 144.582V130.344H253.418V141.453C253.418 142.195 253.586 142.715 253.922 143.012C254.266 143.309 254.75 143.457 255.375 143.457H256.137C256.355 143.457 256.504 143.516 256.582 143.633C256.668 143.75 256.719 143.891 256.734 144.055V145.391ZM252.246 128.926L250.676 127.262C250.48 127.059 250.336 126.84 250.242 126.605C250.156 126.387 250.113 126.121 250.113 125.809H251.32C251.328 126.363 251.637 126.949 252.246 127.566C252.855 126.949 253.164 126.363 253.172 125.809H254.379C254.379 126.121 254.336 126.387 254.25 126.605C254.148 126.84 254 127.059 253.805 127.262L252.246 128.926ZM255.996 146C255.801 146 255.66 145.941 255.574 145.824C255.48 145.707 255.434 145.578 255.434 145.438V144.137C255.434 143.98 255.484 143.828 255.586 143.68C255.68 143.531 255.816 143.457 255.996 143.457H259.699V137.305H262.195V146H255.996ZM256.184 148.754C256.184 148.402 256.305 148.105 256.547 147.863C256.797 147.621 257.113 147.5 257.496 147.5C257.871 147.5 258.18 147.621 258.422 147.863C258.672 148.105 258.797 148.402 258.797 148.754C258.797 149.121 258.672 149.422 258.422 149.656C258.18 149.898 257.871 150.02 257.496 150.02C257.113 150.02 256.797 149.898 256.547 149.656C256.305 149.422 256.184 149.121 256.184 148.754ZM259.57 148.754C259.57 148.402 259.691 148.105 259.934 147.863C260.184 147.621 260.5 147.5 260.883 147.5C261.258 147.5 261.57 147.621 261.82 147.863C262.07 148.105 262.195 148.402 262.195 148.754C262.195 149.121 262.07 149.422 261.82 149.656C261.57 149.898 261.258 150.02 260.883 150.02C260.5 150.02 260.184 149.898 259.934 149.656C259.691 149.422 259.57 149.121 259.57 148.754ZM270.293 143.457V141.512C270.293 140.684 270.137 140.047 269.824 139.602C269.512 139.156 269.047 138.934 268.43 138.934C268.172 138.934 267.922 138.988 267.68 139.098C267.438 139.207 267.223 139.363 267.035 139.566C266.848 139.762 266.691 139.996 266.566 140.27C266.449 140.543 266.391 140.855 266.391 141.207C266.391 141.621 266.457 141.973 266.59 142.262C266.723 142.543 266.898 142.773 267.117 142.953C267.344 143.133 267.598 143.262 267.879 143.34C268.168 143.418 268.465 143.457 268.77 143.457H270.293ZM268.828 146C267.938 146 267.184 145.871 266.566 145.613C265.949 145.355 265.441 145.023 265.043 144.617C264.652 144.203 264.367 143.734 264.188 143.211C264.016 142.68 263.93 142.145 263.93 141.605C263.93 140.918 264.047 140.266 264.281 139.648C264.516 139.031 264.836 138.488 265.242 138.02C265.648 137.551 266.137 137.184 266.707 136.918C267.277 136.645 267.902 136.508 268.582 136.508C269.207 136.508 269.777 136.617 270.293 136.836C270.816 137.047 271.262 137.344 271.629 137.727C272.004 138.109 272.289 138.57 272.484 139.109C272.68 139.641 272.777 140.227 272.777 140.867V143.457H274.336C274.547 143.457 274.695 143.516 274.781 143.633C274.875 143.75 274.922 143.891 274.922 144.055V145.391C274.922 145.508 274.875 145.641 274.781 145.789C274.695 145.93 274.547 146 274.336 146H268.828ZM280.863 143.598C281.559 143.598 282.07 143.391 282.398 142.977C282.727 142.555 282.891 142.039 282.891 141.43C282.891 141.055 282.832 140.715 282.715 140.41C282.605 140.098 282.457 139.832 282.27 139.613C282.082 139.395 281.863 139.227 281.613 139.109C281.371 138.992 281.121 138.934 280.863 138.934C280.582 138.934 280.316 138.992 280.066 139.109C279.816 139.227 279.602 139.395 279.422 139.613C279.242 139.832 279.098 140.098 278.988 140.41C278.879 140.715 278.824 141.055 278.824 141.43C278.824 142.039 278.988 142.555 279.316 142.977C279.645 143.391 280.16 143.598 280.863 143.598ZM274.207 146C273.996 146 273.848 145.941 273.762 145.824C273.668 145.707 273.621 145.578 273.621 145.438V144.137C273.621 143.98 273.672 143.828 273.773 143.68C273.867 143.531 274.012 143.457 274.207 143.457H275.062C275.227 143.457 275.387 143.434 275.543 143.387C275.707 143.332 275.852 143.23 275.977 143.082C276.102 142.926 276.199 142.715 276.27 142.449C276.34 142.176 276.375 141.828 276.375 141.406C276.375 140.711 276.488 140.07 276.715 139.484C276.941 138.891 277.254 138.379 277.652 137.949C278.051 137.52 278.527 137.18 279.082 136.93C279.645 136.68 280.246 136.555 280.887 136.555C282.301 136.555 283.383 137.008 284.133 137.914C284.883 138.812 285.258 140.082 285.258 141.723C285.258 141.848 285.273 142.012 285.305 142.215C285.344 142.418 285.43 142.613 285.562 142.801C285.695 142.98 285.887 143.137 286.137 143.27C286.395 143.395 286.742 143.457 287.18 143.457H287.965C288.184 143.457 288.34 143.516 288.434 143.633C288.527 143.75 288.574 143.891 288.574 144.055V145.391C288.574 145.508 288.523 145.641 288.422 145.789C288.32 145.93 288.168 146 287.965 146H287.121C286.504 146 285.965 145.848 285.504 145.543C285.051 145.238 284.711 144.852 284.484 144.383C284.227 144.789 283.949 145.109 283.652 145.344C283.363 145.578 283.066 145.75 282.762 145.859C282.457 145.969 282.137 146.035 281.801 146.059C281.465 146.09 281.121 146.105 280.77 146.105C279.941 146.105 279.254 145.961 278.707 145.672C278.16 145.375 277.711 144.996 277.359 144.535C277.156 144.957 276.863 145.309 276.48 145.59C276.105 145.863 275.676 146 275.191 146H274.207ZM287.848 146C287.598 146 287.438 145.941 287.367 145.824C287.297 145.707 287.262 145.578 287.262 145.438V144.137C287.262 143.98 287.312 143.828 287.414 143.68C287.508 143.531 287.652 143.457 287.848 143.457H289.957C290.277 143.457 290.492 143.355 290.602 143.152C290.711 142.949 290.766 142.676 290.766 142.332V137.305H293.25V141.453C293.25 142.039 293.387 142.52 293.66 142.895C293.941 143.27 294.445 143.457 295.172 143.457H295.945C296.195 143.457 296.355 143.516 296.426 143.633C296.496 143.75 296.531 143.891 296.531 144.055V145.391C296.531 145.508 296.484 145.641 296.391 145.789C296.297 145.93 296.148 146 295.945 146H295.113C294.473 146 293.957 145.848 293.566 145.543C293.184 145.238 292.891 144.902 292.688 144.535C292.438 144.957 292.09 145.309 291.645 145.59C291.199 145.863 290.672 146 290.062 146H287.848ZM288.762 148.754C288.762 148.402 288.883 148.105 289.125 147.863C289.367 147.621 289.684 147.5 290.074 147.5C290.449 147.5 290.762 147.621 291.012 147.863C291.262 148.105 291.387 148.402 291.387 148.754C291.387 149.121 291.262 149.422 291.012 149.656C290.762 149.898 290.449 150.02 290.074 150.02C289.684 150.02 289.367 149.898 289.125 149.656C288.883 149.422 288.762 149.121 288.762 148.754ZM292.137 148.754C292.137 148.402 292.262 148.105 292.512 147.863C292.762 147.621 293.074 147.5 293.449 147.5C293.832 147.5 294.145 147.621 294.387 147.863C294.637 148.105 294.762 148.402 294.762 148.754C294.762 149.121 294.637 149.422 294.387 149.656C294.145 149.898 293.832 150.02 293.449 150.02C293.074 150.02 292.762 149.898 292.512 149.656C292.262 149.422 292.137 149.121 292.137 148.754ZM295.77 146C295.574 146 295.434 145.941 295.348 145.824C295.254 145.707 295.207 145.578 295.207 145.438V144.137C295.207 143.98 295.258 143.828 295.359 143.68C295.453 143.531 295.59 143.457 295.77 143.457H298.77V137.305H301.266V146H295.77ZM301.805 131.656C301.648 131.609 301.48 131.57 301.301 131.539C301.121 131.5 300.926 131.48 300.715 131.48C300.426 131.48 300.18 131.57 299.977 131.75C299.773 131.922 299.672 132.18 299.672 132.523C299.672 132.82 299.809 133.102 300.082 133.367C300.363 133.625 300.785 133.754 301.348 133.754H302.297V135.383H297.176V133.754H298.523C298.367 133.551 298.219 133.312 298.078 133.039C297.945 132.758 297.879 132.453 297.879 132.125C297.879 131.539 298.102 131.023 298.547 130.578C298.992 130.133 299.672 129.91 300.586 129.91C300.82 129.91 301.07 129.93 301.336 129.969C301.609 130 301.855 130.051 302.074 130.121L301.805 131.656Z" fill="black"/>
<path d="M205.113 297.648C205.113 298.305 205.027 298.918 204.855 299.488C204.684 300.059 204.422 300.555 204.07 300.977C203.719 301.398 203.289 301.73 202.781 301.973C202.273 302.215 201.684 302.336 201.012 302.336C200.73 302.336 200.473 302.324 200.238 302.301C200.012 302.277 199.809 302.25 199.629 302.219C199.527 302.203 199.43 302.188 199.336 302.172C199.242 302.156 199.145 302.137 199.043 302.113L199.336 299.617L199.945 299.746C200.117 299.777 200.297 299.805 200.484 299.828C200.68 299.852 200.855 299.863 201.012 299.863C201.652 299.863 202.082 299.656 202.301 299.242C202.52 298.836 202.629 298.242 202.629 297.461V289.305H205.113V297.648ZM202.887 307.023L201.316 305.359C201.121 305.148 200.977 304.926 200.883 304.691C200.797 304.48 200.754 304.219 200.754 303.906H201.961C201.969 304.461 202.277 305.043 202.887 305.652C203.496 305.043 203.805 304.461 203.812 303.906H205.02C205.02 304.219 204.977 304.48 204.891 304.691C204.789 304.926 204.641 305.148 204.445 305.359L202.887 307.023ZM213.152 295.457V293.512C213.152 292.684 212.996 292.047 212.684 291.602C212.371 291.156 211.906 290.934 211.289 290.934C211.031 290.934 210.781 290.988 210.539 291.098C210.297 291.207 210.082 291.363 209.895 291.566C209.707 291.762 209.551 291.996 209.426 292.27C209.309 292.543 209.25 292.855 209.25 293.207C209.25 293.621 209.316 293.973 209.449 294.262C209.582 294.543 209.758 294.773 209.977 294.953C210.203 295.133 210.457 295.262 210.738 295.34C211.027 295.418 211.324 295.457 211.629 295.457H213.152ZM211.688 298C210.797 298 210.043 297.871 209.426 297.613C208.809 297.355 208.301 297.023 207.902 296.617C207.512 296.203 207.227 295.734 207.047 295.211C206.875 294.68 206.789 294.145 206.789 293.605C206.789 292.918 206.906 292.266 207.141 291.648C207.375 291.031 207.695 290.488 208.102 290.02C208.508 289.551 208.996 289.184 209.566 288.918C210.137 288.645 210.762 288.508 211.441 288.508C212.066 288.508 212.637 288.617 213.152 288.836C213.676 289.047 214.121 289.344 214.488 289.727C214.863 290.109 215.148 290.57 215.344 291.109C215.539 291.641 215.637 292.227 215.637 292.867V295.457H217.195C217.406 295.457 217.555 295.516 217.641 295.633C217.734 295.75 217.781 295.891 217.781 296.055V297.391C217.781 297.508 217.734 297.641 217.641 297.789C217.555 297.93 217.406 298 217.195 298H211.688ZM217.066 298C216.816 298 216.656 297.941 216.586 297.824C216.516 297.707 216.48 297.578 216.48 297.438V296.137C216.48 295.98 216.531 295.828 216.633 295.68C216.727 295.531 216.871 295.457 217.066 295.457H219.176C219.496 295.457 219.711 295.355 219.82 295.152C219.93 294.949 219.984 294.676 219.984 294.332V289.305H222.469V293.453C222.469 294.039 222.605 294.52 222.879 294.895C223.16 295.27 223.664 295.457 224.391 295.457H225.164C225.414 295.457 225.574 295.516 225.645 295.633C225.715 295.75 225.75 295.891 225.75 296.055V297.391C225.75 297.508 225.703 297.641 225.609 297.789C225.516 297.93 225.367 298 225.164 298H224.332C223.691 298 223.176 297.848 222.785 297.543C222.402 297.238 222.109 296.902 221.906 296.535C221.656 296.957 221.309 297.309 220.863 297.59C220.418 297.863 219.891 298 219.281 298H217.066ZM221.73 303.59C221.73 303.941 221.602 304.238 221.344 304.48C221.094 304.723 220.777 304.844 220.395 304.844C220.035 304.844 219.723 304.723 219.457 304.48C219.191 304.238 219.059 303.941 219.059 303.59C219.059 303.23 219.191 302.93 219.457 302.688C219.723 302.453 220.035 302.336 220.395 302.336C220.777 302.336 221.094 302.453 221.344 302.688C221.602 302.93 221.73 303.23 221.73 303.59ZM223.418 300.777C223.418 301.129 223.293 301.426 223.043 301.668C222.793 301.918 222.48 302.043 222.105 302.043C221.723 302.043 221.406 301.918 221.156 301.668C220.914 301.426 220.793 301.129 220.793 300.777C220.793 300.426 220.914 300.125 221.156 299.875C221.406 299.625 221.723 299.5 222.105 299.5C222.48 299.5 222.793 299.625 223.043 299.875C223.293 300.125 223.418 300.426 223.418 300.777ZM220.008 300.777C220.008 301.129 219.883 301.426 219.633 301.668C219.383 301.918 219.07 302.043 218.695 302.043C218.312 302.043 217.996 301.918 217.746 301.668C217.504 301.426 217.383 301.129 217.383 300.777C217.383 300.426 217.504 300.125 217.746 299.875C217.996 299.625 218.312 299.5 218.695 299.5C219.07 299.5 219.383 299.625 219.633 299.875C219.883 300.125 220.008 300.426 220.008 300.777ZM225.012 298C224.762 298 224.602 297.941 224.531 297.824C224.461 297.707 224.426 297.578 224.426 297.438V296.137C224.426 295.98 224.477 295.828 224.578 295.68C224.672 295.531 224.816 295.457 225.012 295.457H227.121C227.441 295.457 227.656 295.355 227.766 295.152C227.875 294.949 227.93 294.676 227.93 294.332V289.305H230.414V293.453C230.414 294.039 230.551 294.52 230.824 294.895C231.105 295.27 231.609 295.457 232.336 295.457H233.109C233.359 295.457 233.52 295.516 233.59 295.633C233.66 295.75 233.695 295.891 233.695 296.055V297.391C233.695 297.508 233.648 297.641 233.555 297.789C233.461 297.93 233.312 298 233.109 298H232.277C231.637 298 231.121 297.848 230.73 297.543C230.348 297.238 230.055 296.902 229.852 296.535C229.602 296.957 229.254 297.309 228.809 297.59C228.363 297.863 227.836 298 227.227 298H225.012ZM226.16 300.754C226.16 300.402 226.281 300.105 226.523 299.863C226.766 299.621 227.082 299.5 227.473 299.5C227.848 299.5 228.16 299.621 228.41 299.863C228.66 300.105 228.785 300.402 228.785 300.754C228.785 301.121 228.66 301.422 228.41 301.656C228.16 301.898 227.848 302.02 227.473 302.02C227.082 302.02 226.766 301.898 226.523 301.656C226.281 301.422 226.16 301.121 226.16 300.754ZM229.535 300.754C229.535 300.402 229.66 300.105 229.91 299.863C230.16 299.621 230.473 299.5 230.848 299.5C231.23 299.5 231.543 299.621 231.785 299.863C232.035 300.105 232.16 300.402 232.16 300.754C232.16 301.121 232.035 301.422 231.785 301.656C231.543 301.898 231.23 302.02 230.848 302.02C230.473 302.02 230.16 301.898 229.91 301.656C229.66 301.422 229.535 301.121 229.535 300.754ZM229.125 287.863L227.555 286.199C227.359 285.996 227.215 285.777 227.121 285.543C227.035 285.324 226.992 285.059 226.992 284.746H228.199C228.207 285.301 228.516 285.887 229.125 286.504C229.734 285.887 230.043 285.301 230.051 284.746H231.258C231.258 285.059 231.215 285.324 231.129 285.543C231.027 285.777 230.879 285.996 230.684 286.199L229.125 287.863ZM232.934 298C232.738 298 232.598 297.941 232.512 297.824C232.418 297.707 232.371 297.578 232.371 297.438V296.137C232.371 295.98 232.422 295.828 232.523 295.68C232.617 295.531 232.754 295.457 232.934 295.457H235.934V289.305H238.43V298H232.934ZM234.082 285.883C234.082 285.531 234.203 285.234 234.445 284.992C234.695 284.742 235.012 284.617 235.395 284.617C235.77 284.617 236.082 284.742 236.332 284.992C236.582 285.234 236.707 285.531 236.707 285.883C236.707 286.242 236.582 286.543 236.332 286.785C236.082 287.027 235.77 287.148 235.395 287.148C235.012 287.148 234.695 287.027 234.445 286.785C234.203 286.543 234.082 286.242 234.082 285.883ZM237.48 285.883C237.48 285.531 237.605 285.234 237.855 284.992C238.105 284.742 238.418 284.617 238.793 284.617C239.176 284.617 239.488 284.742 239.73 284.992C239.98 285.234 240.105 285.531 240.105 285.883C240.105 286.242 239.98 286.543 239.73 286.785C239.488 287.027 239.176 287.148 238.793 287.148C238.418 287.148 238.105 287.027 237.855 286.785C237.605 286.543 237.48 286.242 237.48 285.883ZM256.031 297.754C256.031 297.473 255.902 297.188 255.645 296.898C255.387 296.602 255.09 296.309 254.754 296.02C254.504 295.793 254.25 295.559 253.992 295.316C253.734 295.066 253.504 294.801 253.301 294.52C253.105 294.23 252.941 293.922 252.809 293.594C252.676 293.266 252.609 292.906 252.609 292.516C252.609 291.828 252.742 291.238 253.008 290.746C253.281 290.246 253.633 289.836 254.062 289.516C254.492 289.195 254.965 288.961 255.48 288.812C255.996 288.656 256.504 288.578 257.004 288.578C257.34 288.578 257.668 288.605 257.988 288.66C258.309 288.707 258.602 288.766 258.867 288.836C259.156 288.898 259.445 288.984 259.734 289.094L259.137 291.59C258.816 291.426 258.445 291.301 258.023 291.215C257.602 291.121 257.18 291.074 256.758 291.074C256.297 291.074 255.906 291.176 255.586 291.379C255.273 291.582 255.117 291.863 255.117 292.223C255.117 292.527 255.262 292.844 255.551 293.172C255.848 293.5 256.188 293.836 256.57 294.18C256.812 294.391 257.059 294.617 257.309 294.859C257.559 295.102 257.781 295.355 257.977 295.621C258.172 295.887 258.328 296.164 258.445 296.453C258.562 296.742 258.621 297.055 258.621 297.391C258.621 297.961 258.473 298.555 258.176 299.172C257.887 299.789 257.434 300.359 256.816 300.883C256.207 301.406 255.43 301.836 254.484 302.172C253.539 302.508 252.418 302.676 251.121 302.676C249.941 302.676 248.926 302.5 248.074 302.148C247.23 301.805 246.539 301.355 246 300.801C245.469 300.254 245.074 299.641 244.816 298.961C244.559 298.281 244.43 297.598 244.43 296.91C244.43 296.121 244.566 295.395 244.84 294.73C245.121 294.059 245.473 293.414 245.895 292.797L247.957 293.992C247.621 294.492 247.375 294.98 247.219 295.457C247.07 295.926 246.996 296.355 246.996 296.746C246.996 297.23 247.09 297.672 247.277 298.07C247.465 298.469 247.742 298.812 248.109 299.102C248.484 299.398 248.941 299.633 249.48 299.805C250.02 299.977 250.645 300.062 251.355 300.062C252.043 300.062 252.672 299.988 253.242 299.84C253.82 299.691 254.316 299.508 254.73 299.289C255.152 299.07 255.473 298.824 255.691 298.551C255.918 298.285 256.031 298.02 256.031 297.754ZM267.129 295.457V293.512C267.129 292.684 266.973 292.047 266.66 291.602C266.348 291.156 265.883 290.934 265.266 290.934C265.008 290.934 264.758 290.988 264.516 291.098C264.273 291.207 264.059 291.363 263.871 291.566C263.684 291.762 263.527 291.996 263.402 292.27C263.285 292.543 263.227 292.855 263.227 293.207C263.227 293.621 263.293 293.973 263.426 294.262C263.559 294.543 263.734 294.773 263.953 294.953C264.18 295.133 264.434 295.262 264.715 295.34C265.004 295.418 265.301 295.457 265.605 295.457H267.129ZM265.664 298C264.773 298 264.02 297.871 263.402 297.613C262.785 297.355 262.277 297.023 261.879 296.617C261.488 296.203 261.203 295.734 261.023 295.211C260.852 294.68 260.766 294.145 260.766 293.605C260.766 292.918 260.883 292.266 261.117 291.648C261.352 291.031 261.672 290.488 262.078 290.02C262.484 289.551 262.973 289.184 263.543 288.918C264.113 288.645 264.738 288.508 265.418 288.508C266.043 288.508 266.613 288.617 267.129 288.836C267.652 289.047 268.098 289.344 268.465 289.727C268.84 290.109 269.125 290.57 269.32 291.109C269.516 291.641 269.613 292.227 269.613 292.867V295.457H271.172C271.383 295.457 271.531 295.516 271.617 295.633C271.711 295.75 271.758 295.891 271.758 296.055V297.391C271.758 297.508 271.711 297.641 271.617 297.789C271.531 297.93 271.383 298 271.172 298H265.664ZM271.043 298C270.832 298 270.684 297.941 270.598 297.824C270.504 297.707 270.457 297.578 270.457 297.438V296.137C270.457 295.98 270.508 295.828 270.609 295.68C270.703 295.531 270.848 295.457 271.043 295.457H274.816C275.152 295.457 275.367 295.355 275.461 295.152C275.562 294.949 275.613 294.676 275.613 294.332V291.332H278.109V293.453C278.109 294.039 278.246 294.52 278.52 294.895C278.801 295.27 279.305 295.457 280.031 295.457H280.582C280.91 295.457 281.125 295.363 281.227 295.176C281.336 294.988 281.391 294.707 281.391 294.332V290.477H283.875V293.453C283.875 294.039 284.012 294.52 284.285 294.895C284.566 295.27 285.074 295.457 285.809 295.457H287.098V289.305H289.57V298H285.75C285.133 298 284.633 297.852 284.25 297.555C283.875 297.25 283.582 296.918 283.371 296.559C283.129 297.035 282.773 297.395 282.305 297.637C281.836 297.879 281.297 298 280.688 298H279.996C279.34 298 278.82 297.859 278.438 297.578C278.055 297.289 277.766 296.965 277.57 296.605C277.32 297.051 276.957 297.395 276.48 297.637C276.012 297.879 275.449 298 274.793 298H271.043ZM281.391 283.059C281.391 282.715 281.516 282.422 281.766 282.18C282.023 281.938 282.344 281.816 282.727 281.816C283.086 281.816 283.398 281.938 283.664 282.18C283.93 282.422 284.062 282.715 284.062 283.059C284.062 283.426 283.93 283.73 283.664 283.973C283.398 284.215 283.086 284.336 282.727 284.336C282.344 284.336 282.023 284.215 281.766 283.973C281.516 283.73 281.391 283.426 281.391 283.059ZM279.703 285.883C279.703 285.531 279.828 285.234 280.078 284.992C280.328 284.742 280.641 284.617 281.016 284.617C281.391 284.617 281.703 284.742 281.953 284.992C282.203 285.234 282.328 285.531 282.328 285.883C282.328 286.242 282.203 286.543 281.953 286.785C281.703 287.027 281.391 287.148 281.016 287.148C280.641 287.148 280.328 287.027 280.078 286.785C279.828 286.543 279.703 286.242 279.703 285.883ZM283.113 285.883C283.113 285.531 283.234 285.234 283.477 284.992C283.727 284.742 284.047 284.617 284.438 284.617C284.812 284.617 285.125 284.742 285.375 284.992C285.625 285.234 285.75 285.531 285.75 285.883C285.75 286.242 285.625 286.543 285.375 286.785C285.125 287.027 284.812 287.148 284.438 287.148C284.047 287.148 283.727 287.027 283.477 286.785C283.234 286.543 283.113 286.242 283.113 285.883ZM297.586 298C296.68 298 295.918 297.871 295.301 297.613C294.684 297.355 294.18 297.023 293.789 296.617C293.406 296.203 293.125 295.734 292.945 295.211C292.773 294.68 292.688 294.145 292.688 293.605C292.688 292.918 292.797 292.266 293.016 291.648C293.242 291.031 293.559 290.488 293.965 290.02C294.379 289.551 294.871 289.184 295.441 288.918C296.012 288.645 296.637 288.508 297.316 288.508C297.957 288.508 298.535 288.617 299.051 288.836C299.574 289.047 300.016 289.344 300.375 289.727C300.742 290.109 301.023 290.57 301.219 291.109C301.414 291.641 301.512 292.227 301.512 292.867V297.672C301.512 298.586 301.375 299.367 301.102 300.016C300.828 300.672 300.438 301.199 299.93 301.598C299.43 301.996 298.832 302.289 298.137 302.477C297.449 302.664 296.691 302.758 295.863 302.758C295.551 302.758 295.211 302.746 294.844 302.723C294.477 302.707 294.062 302.664 293.602 302.594L293.777 300.145C294.207 300.199 294.613 300.242 294.996 300.273C295.379 300.305 295.703 300.32 295.969 300.32C296.383 300.32 296.77 300.289 297.129 300.227C297.488 300.172 297.809 300.059 298.09 299.887C298.371 299.723 298.598 299.492 298.77 299.195C298.941 298.898 299.043 298.5 299.074 298H297.586ZM299.051 295.457V293.512C299.051 292.684 298.887 292.047 298.559 291.602C298.23 291.156 297.773 290.934 297.188 290.934C296.93 290.934 296.68 290.988 296.438 291.098C296.195 291.207 295.977 291.363 295.781 291.566C295.586 291.762 295.43 291.996 295.312 292.27C295.195 292.543 295.137 292.855 295.137 293.207C295.137 293.621 295.199 293.973 295.324 294.262C295.457 294.543 295.633 294.773 295.852 294.953C296.078 295.133 296.336 295.262 296.625 295.34C296.922 295.418 297.223 295.457 297.527 295.457H299.051Z" fill="black"/>
<path d="M147.031 40.7539C147.031 40.4727 146.902 40.1875 146.645 39.8984C146.387 39.6016 146.09 39.3086 145.754 39.0195C145.504 38.793 145.25 38.5586 144.992 38.3164C144.734 38.0664 144.504 37.8008 144.301 37.5195C144.105 37.2305 143.941 36.9219 143.809 36.5938C143.676 36.2656 143.609 35.9062 143.609 35.5156C143.609 34.8281 143.742 34.2383 144.008 33.7461C144.281 33.2461 144.633 32.8359 145.062 32.5156C145.492 32.1953 145.965 31.9609 146.48 31.8125C146.996 31.6562 147.504 31.5781 148.004 31.5781C148.34 31.5781 148.668 31.6055 148.988 31.6602C149.309 31.707 149.602 31.7656 149.867 31.8359C150.156 31.8984 150.445 31.9844 150.734 32.0938L150.137 34.5898C149.816 34.4258 149.445 34.3008 149.023 34.2148C148.602 34.1211 148.18 34.0742 147.758 34.0742C147.297 34.0742 146.906 34.1758 146.586 34.3789C146.273 34.582 146.117 34.8633 146.117 35.2227C146.117 35.5273 146.262 35.8438 146.551 36.1719C146.848 36.5 147.188 36.8359 147.57 37.1797C147.812 37.3906 148.059 37.6172 148.309 37.8594C148.559 38.1016 148.781 38.3555 148.977 38.6211C149.172 38.8867 149.328 39.1641 149.445 39.4531C149.562 39.7422 149.621 40.0547 149.621 40.3906C149.621 40.9609 149.473 41.5547 149.176 42.1719C148.887 42.7891 148.434 43.3594 147.816 43.8828C147.207 44.4062 146.43 44.8359 145.484 45.1719C144.539 45.5078 143.418 45.6758 142.121 45.6758C140.941 45.6758 139.926 45.5 139.074 45.1484C138.23 44.8047 137.539 44.3555 137 43.8008C136.469 43.2539 136.074 42.6406 135.816 41.9609C135.559 41.2812 135.43 40.5977 135.43 39.9102C135.43 39.1211 135.566 38.3945 135.84 37.7305C136.121 37.0586 136.473 36.4141 136.895 35.7969L138.957 36.9922C138.621 37.4922 138.375 37.9805 138.219 38.457C138.07 38.9258 137.996 39.3555 137.996 39.7461C137.996 40.2305 138.09 40.6719 138.277 41.0703C138.465 41.4688 138.742 41.8125 139.109 42.1016C139.484 42.3984 139.941 42.6328 140.48 42.8047C141.02 42.9766 141.645 43.0625 142.355 43.0625C143.043 43.0625 143.672 42.9883 144.242 42.8398C144.82 42.6914 145.316 42.5078 145.73 42.2891C146.152 42.0703 146.473 41.8242 146.691 41.5508C146.918 41.2852 147.031 41.0195 147.031 40.7539ZM157.426 40.6484C157.426 41.3047 157.34 41.918 157.168 42.4883C156.996 43.0586 156.734 43.5547 156.383 43.9766C156.031 44.3984 155.602 44.7305 155.094 44.9727C154.586 45.2148 153.996 45.3359 153.324 45.3359C153.043 45.3359 152.785 45.3242 152.551 45.3008C152.324 45.2773 152.121 45.25 151.941 45.2188C151.84 45.2031 151.742 45.1875 151.648 45.1719C151.555 45.1562 151.457 45.1367 151.355 45.1133L151.648 42.6172L152.258 42.7461C152.43 42.7773 152.609 42.8047 152.797 42.8281C152.992 42.8516 153.168 42.8633 153.324 42.8633C153.965 42.8633 154.395 42.6562 154.613 42.2422C154.832 41.8359 154.941 41.2422 154.941 40.4609V32.3047H157.426V40.6484ZM155.047 28.8828C155.047 28.5312 155.176 28.2344 155.434 27.9922C155.691 27.7422 156 27.6172 156.359 27.6172C156.742 27.6172 157.059 27.7422 157.309 27.9922C157.566 28.2344 157.695 28.5312 157.695 28.8828C157.695 29.2422 157.566 29.543 157.309 29.7852C157.059 30.0273 156.742 30.1484 156.359 30.1484C156 30.1484 155.691 30.0273 155.434 29.7852C155.176 29.543 155.047 29.2422 155.047 28.8828ZM160.707 25.3438H163.191V38.457H164.691C164.926 38.457 165.086 38.5156 165.172 38.6328C165.258 38.75 165.301 38.8906 165.301 39.0547V40.3906C165.301 40.5078 165.246 40.6406 165.137 40.7891C165.035 40.9297 164.887 41 164.691 41H160.707V25.3438ZM164.598 41C164.387 41 164.238 40.9414 164.152 40.8242C164.059 40.707 164.012 40.5781 164.012 40.4375V39.1367C164.012 38.9805 164.062 38.8281 164.164 38.6797C164.258 38.5312 164.402 38.457 164.598 38.457H168.371C168.707 38.457 168.922 38.3555 169.016 38.1523C169.117 37.9492 169.168 37.6758 169.168 37.332V34.332H171.664V36.4531C171.664 37.0391 171.801 37.5195 172.074 37.8945C172.355 38.2695 172.859 38.457 173.586 38.457H174.137C174.465 38.457 174.68 38.3633 174.781 38.1758C174.891 37.9883 174.945 37.707 174.945 37.332V33.4766H177.43V36.4531C177.43 37.0391 177.566 37.5195 177.84 37.8945C178.121 38.2695 178.629 38.457 179.363 38.457H180.652V32.3047H183.125V41H179.305C178.688 41 178.188 40.8516 177.805 40.5547C177.43 40.25 177.137 39.918 176.926 39.5586C176.684 40.0352 176.328 40.3945 175.859 40.6367C175.391 40.8789 174.852 41 174.242 41H173.551C172.895 41 172.375 40.8594 171.992 40.5781C171.609 40.2891 171.32 39.9648 171.125 39.6055C170.875 40.0508 170.512 40.3945 170.035 40.6367C169.566 40.8789 169.004 41 168.348 41H164.598ZM191.129 38.457V36.5117C191.129 35.6836 190.973 35.0469 190.66 34.6016C190.348 34.1562 189.883 33.9336 189.266 33.9336C189.008 33.9336 188.758 33.9883 188.516 34.0977C188.273 34.207 188.059 34.3633 187.871 34.5664C187.684 34.7617 187.527 34.9961 187.402 35.2695C187.285 35.543 187.227 35.8555 187.227 36.207C187.227 36.6211 187.293 36.9727 187.426 37.2617C187.559 37.543 187.734 37.7734 187.953 37.9531C188.18 38.1328 188.434 38.2617 188.715 38.3398C189.004 38.418 189.301 38.457 189.605 38.457H191.129ZM189.664 41C188.773 41 188.02 40.8711 187.402 40.6133C186.785 40.3555 186.277 40.0234 185.879 39.6172C185.488 39.2031 185.203 38.7344 185.023 38.2109C184.852 37.6797 184.766 37.1445 184.766 36.6055C184.766 35.918 184.883 35.2656 185.117 34.6484C185.352 34.0312 185.672 33.4883 186.078 33.0195C186.484 32.5508 186.973 32.1836 187.543 31.918C188.113 31.6445 188.738 31.5078 189.418 31.5078C190.043 31.5078 190.613 31.6172 191.129 31.8359C191.652 32.0469 192.098 32.3438 192.465 32.7266C192.84 33.1094 193.125 33.5703 193.32 34.1094C193.516 34.6406 193.613 35.2266 193.613 35.8672V38.457H195.172C195.383 38.457 195.531 38.5156 195.617 38.6328C195.711 38.75 195.758 38.8906 195.758 39.0547V40.3906C195.758 40.5078 195.711 40.6406 195.617 40.7891C195.531 40.9297 195.383 41 195.172 41H189.664ZM195.043 41C194.832 41 194.684 40.9414 194.598 40.8242C194.504 40.707 194.457 40.5781 194.457 40.4375V39.1367C194.457 38.9805 194.508 38.8281 194.609 38.6797C194.703 38.5312 194.848 38.457 195.043 38.457H198.816C199.152 38.457 199.367 38.3555 199.461 38.1523C199.562 37.9492 199.613 37.6758 199.613 37.332V34.332H202.109V36.4531C202.109 37.0391 202.246 37.5195 202.52 37.8945C202.801 38.2695 203.305 38.457 204.031 38.457H204.582C204.91 38.457 205.125 38.3633 205.227 38.1758C205.336 37.9883 205.391 37.707 205.391 37.332V33.4766H207.875V36.4531C207.875 37.0391 208.012 37.5195 208.285 37.8945C208.566 38.2695 209.074 38.457 209.809 38.457H211.098V32.3047H213.57V41H209.75C209.133 41 208.633 40.8516 208.25 40.5547C207.875 40.25 207.582 39.918 207.371 39.5586C207.129 40.0352 206.773 40.3945 206.305 40.6367C205.836 40.8789 205.297 41 204.688 41H203.996C203.34 41 202.82 40.8594 202.438 40.5781C202.055 40.2891 201.766 39.9648 201.57 39.6055C201.32 40.0508 200.957 40.3945 200.48 40.6367C200.012 40.8789 199.449 41 198.793 41H195.043ZM205.391 26.0586C205.391 25.7148 205.516 25.4219 205.766 25.1797C206.023 24.9375 206.344 24.8164 206.727 24.8164C207.086 24.8164 207.398 24.9375 207.664 25.1797C207.93 25.4219 208.062 25.7148 208.062 26.0586C208.062 26.4258 207.93 26.7305 207.664 26.9727C207.398 27.2148 207.086 27.3359 206.727 27.3359C206.344 27.3359 206.023 27.2148 205.766 26.9727C205.516 26.7305 205.391 26.4258 205.391 26.0586ZM203.703 28.8828C203.703 28.5312 203.828 28.2344 204.078 27.9922C204.328 27.7422 204.641 27.6172 205.016 27.6172C205.391 27.6172 205.703 27.7422 205.953 27.9922C206.203 28.2344 206.328 28.5312 206.328 28.8828C206.328 29.2422 206.203 29.543 205.953 29.7852C205.703 30.0273 205.391 30.1484 205.016 30.1484C204.641 30.1484 204.328 30.0273 204.078 29.7852C203.828 29.543 203.703 29.2422 203.703 28.8828ZM207.113 28.8828C207.113 28.5312 207.234 28.2344 207.477 27.9922C207.727 27.7422 208.047 27.6172 208.438 27.6172C208.812 27.6172 209.125 27.7422 209.375 27.9922C209.625 28.2344 209.75 28.5312 209.75 28.8828C209.75 29.2422 209.625 29.543 209.375 29.7852C209.125 30.0273 208.812 30.1484 208.438 30.1484C208.047 30.1484 207.727 30.0273 207.477 29.7852C207.234 29.543 207.113 29.2422 207.113 28.8828ZM221.586 41C220.68 41 219.918 40.8711 219.301 40.6133C218.684 40.3555 218.18 40.0234 217.789 39.6172C217.406 39.2031 217.125 38.7344 216.945 38.2109C216.773 37.6797 216.688 37.1445 216.688 36.6055C216.688 35.918 216.797 35.2656 217.016 34.6484C217.242 34.0312 217.559 33.4883 217.965 33.0195C218.379 32.5508 218.871 32.1836 219.441 31.918C220.012 31.6445 220.637 31.5078 221.316 31.5078C221.957 31.5078 222.535 31.6172 223.051 31.8359C223.574 32.0469 224.016 32.3438 224.375 32.7266C224.742 33.1094 225.023 33.5703 225.219 34.1094C225.414 34.6406 225.512 35.2266 225.512 35.8672V40.6719C225.512 41.5859 225.375 42.3672 225.102 43.0156C224.828 43.6719 224.438 44.1992 223.93 44.5977C223.43 44.9961 222.832 45.2891 222.137 45.4766C221.449 45.6641 220.691 45.7578 219.863 45.7578C219.551 45.7578 219.211 45.7461 218.844 45.7227C218.477 45.707 218.062 45.6641 217.602 45.5938L217.777 43.1445C218.207 43.1992 218.613 43.2422 218.996 43.2734C219.379 43.3047 219.703 43.3203 219.969 43.3203C220.383 43.3203 220.77 43.2891 221.129 43.2266C221.488 43.1719 221.809 43.0586 222.09 42.8867C222.371 42.7227 222.598 42.4922 222.77 42.1953C222.941 41.8984 223.043 41.5 223.074 41H221.586ZM223.051 38.457V36.5117C223.051 35.6836 222.887 35.0469 222.559 34.6016C222.23 34.1562 221.773 33.9336 221.188 33.9336C220.93 33.9336 220.68 33.9883 220.438 34.0977C220.195 34.207 219.977 34.3633 219.781 34.5664C219.586 34.7617 219.43 34.9961 219.312 35.2695C219.195 35.543 219.137 35.8555 219.137 36.207C219.137 36.6211 219.199 36.9727 219.324 37.2617C219.457 37.543 219.633 37.7734 219.852 37.9531C220.078 38.1328 220.336 38.2617 220.625 38.3398C220.922 38.418 221.223 38.457 221.527 38.457H223.051Z" fill="black"/>
<mask id="path-5-inside-1_33_87" fill="white">
<path d="M17 178C17 174.686 19.6863 172 23 172H309C312.314 172 315 174.686 315 178V204C315 207.314 312.314 210 309 210H23C19.6863 210 17 207.314 17 204V178Z"/>
</mask>
<path d="M17 178C17 174.686 19.6863 172 23 172H309C312.314 172 315 174.686 315 178V204C315 207.314 312.314 210 309 210H23C19.6863 210 17 207.314 17 204V178Z" fill="#EDEDED"/>
<path d="M17 172H315H17ZM315 204C315 209.523 310.523 214 305 214H27C21.4772 214 17 209.523 17 204C17 205.105 19.6863 206 23 206H309C312.314 206 315 205.105 315 204ZM17 210V172V210ZM315 172V210V172Z" fill="#155DFC" mask="url(#path-5-inside-1_33_87)"/>
<mask id="path-7-inside-2_33_87" fill="white">
<path d="M17 331C17 327.686 19.6863 325 23 325H309C312.314 325 315 327.686 315 331V357C315 360.314 312.314 363 309 363H23C19.6863 363 17 360.314 17 357V331Z"/>
</mask>
<path d="M17 331C17 327.686 19.6863 325 23 325H309C312.314 325 315 327.686 315 331V357C315 360.314 312.314 363 309 363H23C19.6863 363 17 360.314 17 357V331Z" fill="#EDEDED"/>
<path d="M17 325H315H17ZM315 357C315 362.523 310.523 367 305 367H27C21.4772 367 17 362.523 17 357C17 358.105 19.6863 359 23 359H309C312.314 359 315 358.105 315 357ZM17 363V325V363ZM315 325V363V325Z" fill="#155DFC" mask="url(#path-7-inside-2_33_87)"/>
</svg>
