<svg width="429" height="60" viewBox="0 0 429 60" fill="none" xmlns="http://www.w3.org/2000/svg">
<rect width="429" height="60" fill="white"/>
<rect x="12" y="7" width="107" height="45" rx="5" fill="#155DFC"/>
<path d="M40.3694 28.9287C40.5159 29.1807 40.6536 29.4736 40.7825 29.8076C40.9114 30.1416 41.0286 30.4844 41.134 30.8359C41.2395 31.1816 41.3215 31.5303 41.3801 31.8818C41.4387 32.2334 41.468 32.5586 41.468 32.8574C41.468 33.4727 41.3684 34.0586 41.1692 34.6152C40.97 35.1777 40.6682 35.6699 40.2639 36.0918C39.8655 36.5137 39.3704 36.8477 38.7786 37.0938C38.1926 37.3398 37.513 37.4629 36.7395 37.4629C35.884 37.4629 35.1604 37.3428 34.5686 37.1025C33.9768 36.8623 33.4993 36.543 33.136 36.1445C32.7786 35.7461 32.5178 35.292 32.3538 34.7822C32.1897 34.2725 32.1077 33.7451 32.1077 33.2002C32.1077 32.6729 32.1956 32.1396 32.3714 31.6006C32.5471 31.0615 32.7932 30.5605 33.1096 30.0977L34.7005 30.9941C34.4426 31.4043 34.2639 31.7822 34.1643 32.1279C34.0647 32.4678 34.0149 32.8252 34.0149 33.2002C34.0149 33.4932 34.0676 33.7803 34.1731 34.0615C34.2844 34.3486 34.4544 34.6035 34.6829 34.8262C34.9173 35.0488 35.2102 35.2275 35.5618 35.3623C35.9192 35.4971 36.3382 35.5645 36.8186 35.5645C37.2639 35.5645 37.6594 35.4971 38.0051 35.3623C38.3508 35.2275 38.6438 35.0488 38.884 34.8262C39.1243 34.6035 39.303 34.3398 39.4202 34.0352C39.5432 33.7305 39.6048 33.3965 39.6048 33.0332C39.6048 32.541 39.511 32.0107 39.3235 31.4424C39.136 30.874 38.9016 30.3701 38.6204 29.9307L40.3694 28.9287ZM35.7551 26.7578C35.7551 26.4941 35.8489 26.2686 36.0364 26.0811C36.2239 25.8936 36.4583 25.7998 36.7395 25.7998C37.0208 25.7998 37.2551 25.8936 37.4426 26.0811C37.636 26.2686 37.7327 26.4941 37.7327 26.7578C37.7327 27.0156 37.636 27.2383 37.4426 27.4258C37.2551 27.6133 37.0208 27.707 36.7395 27.707C36.4583 27.707 36.2239 27.6133 36.0364 27.4258C35.8489 27.2383 35.7551 27.0156 35.7551 26.7578ZM46.9876 34C46.3079 34 45.7366 33.9033 45.2737 33.71C44.8108 33.5166 44.4329 33.2676 44.1399 32.9629C43.8528 32.6523 43.6419 32.3008 43.5071 31.9082C43.3782 31.5098 43.3137 31.1084 43.3137 30.7041C43.3137 30.1885 43.3958 29.6992 43.5598 29.2363C43.7298 28.7734 43.9671 28.3662 44.2717 28.0146C44.5823 27.6631 44.9514 27.3877 45.3792 27.1885C45.8069 26.9834 46.2757 26.8809 46.7854 26.8809C47.2659 26.8809 47.6995 26.9629 48.0862 27.127C48.4788 27.2852 48.8098 27.5078 49.0794 27.7949C49.3548 28.082 49.5657 28.4277 49.7122 28.832C49.8587 29.2305 49.9319 29.6699 49.9319 30.1504V33.7539C49.9319 34.4395 49.8294 35.0254 49.6243 35.5117C49.4192 36.0039 49.1262 36.3994 48.7454 36.6982C48.3704 36.9971 47.9221 37.2168 47.4007 37.3574C46.885 37.498 46.3167 37.5684 45.6956 37.5684C45.4612 37.5684 45.2063 37.5596 44.9309 37.542C44.6555 37.5303 44.345 37.498 43.9993 37.4453L44.1311 35.6084C44.4534 35.6494 44.7581 35.6816 45.0452 35.7051C45.3323 35.7285 45.5755 35.7402 45.7747 35.7402C46.0852 35.7402 46.3753 35.7168 46.6448 35.6699C46.9143 35.6289 47.1546 35.5439 47.3655 35.415C47.5764 35.292 47.7464 35.1191 47.8753 34.8965C48.0042 34.6738 48.0803 34.375 48.1038 34H46.9876ZM48.0862 32.0928V30.6338C48.0862 30.0127 47.9632 29.5352 47.7171 29.2012C47.471 28.8672 47.1282 28.7002 46.6887 28.7002C46.4954 28.7002 46.3079 28.7412 46.1262 28.8232C45.9446 28.9053 45.7805 29.0225 45.634 29.1748C45.4876 29.3213 45.3704 29.4971 45.2825 29.7021C45.1946 29.9072 45.1507 30.1416 45.1507 30.4053C45.1507 30.7158 45.1975 30.9795 45.2913 31.1963C45.3909 31.4072 45.5227 31.5801 45.6868 31.7148C45.8567 31.8496 46.0501 31.9463 46.2669 32.0049C46.4895 32.0635 46.7151 32.0928 46.9436 32.0928H48.0862ZM56.5589 32.0928V30.6338C56.5589 30.0127 56.4358 29.5352 56.1897 29.2012C55.9436 28.8672 55.6038 28.7002 55.1702 28.7002C54.971 28.7002 54.7805 28.7412 54.5989 28.8232C54.4173 28.9053 54.2561 29.0225 54.1155 29.1748C53.9749 29.3213 53.8606 29.4971 53.7727 29.7021C53.6848 29.9072 53.6409 30.1416 53.6409 30.4053C53.6409 30.7158 53.6878 30.9795 53.7815 31.1963C53.8811 31.4072 54.013 31.5801 54.177 31.7148C54.3469 31.8496 54.5374 31.9463 54.7483 32.0049C54.9651 32.0635 55.1878 32.0928 55.4163 32.0928H56.5589ZM58.4133 34C58.3782 34.6328 58.2493 35.1748 58.0266 35.626C57.8098 36.083 57.5169 36.4521 57.1477 36.7334C56.7786 37.0205 56.3421 37.2314 55.8382 37.3662C55.3401 37.501 54.7893 37.5684 54.1858 37.5684C53.9339 37.5684 53.6702 37.5596 53.3948 37.542C53.1194 37.5303 52.8176 37.498 52.4895 37.4453L52.6214 35.6084C52.9436 35.6494 53.2454 35.6816 53.5266 35.7051C53.8079 35.7285 54.054 35.7402 54.2649 35.7402C54.5755 35.7402 54.8655 35.7168 55.135 35.6699C55.4046 35.6289 55.6448 35.5439 55.8557 35.415C56.0725 35.292 56.2424 35.1191 56.3655 34.8965C56.4944 34.6738 56.5647 34.375 56.5764 34H55.4778C54.7981 34 54.2268 33.9033 53.7639 33.71C53.301 33.5166 52.9231 33.2676 52.6301 32.9629C52.343 32.6523 52.1321 32.3008 51.9973 31.9082C51.8684 31.5098 51.804 31.1084 51.804 30.7041C51.804 30.1885 51.886 29.6992 52.0501 29.2363C52.22 28.7734 52.4573 28.3662 52.762 28.0146C53.0725 27.6631 53.4387 27.3877 53.8606 27.1885C54.2825 26.9834 54.7512 26.8809 55.2669 26.8809C55.7532 26.8809 56.1897 26.9629 56.5764 27.127C56.969 27.2852 57.3001 27.5078 57.5696 27.7949C57.845 28.082 58.053 28.4277 58.1936 28.832C58.3401 29.2305 58.4133 29.6699 58.4133 30.1504V32.0928H60.0217C60.1975 32.0928 60.3176 32.1367 60.3821 32.2246C60.4465 32.3125 60.4788 32.418 60.4788 32.541V33.543C60.4788 33.6309 60.4436 33.7305 60.3733 33.8418C60.303 33.9473 60.1858 34 60.0217 34H58.4133ZM59.9339 34C59.7874 34 59.6819 33.9561 59.6174 33.8682C59.5471 33.7803 59.512 33.6836 59.512 33.5781V32.6025C59.512 32.4854 59.5501 32.3711 59.6262 32.2598C59.6965 32.1484 59.7991 32.0928 59.9339 32.0928H62.1839V27.4785H64.0559V34H59.9339ZM61.8762 36.0654C61.8762 35.8018 61.97 35.5791 62.1575 35.3975C62.3508 35.2158 62.5911 35.125 62.8782 35.125C63.1477 35.125 63.3792 35.2158 63.5725 35.3975C63.7659 35.5791 63.8626 35.8018 63.8626 36.0654C63.8626 36.3408 63.7659 36.5664 63.5725 36.7422C63.3792 36.9238 63.1477 37.0146 62.8782 37.0146C62.5911 37.0146 62.3508 36.9238 62.1575 36.7422C61.97 36.5664 61.8762 36.3408 61.8762 36.0654ZM80.386 33.543C80.386 33.6309 80.3479 33.7305 80.2717 33.8418C80.2014 33.9473 80.0901 34 79.9378 34H79.4104C79.0589 34 78.7571 33.9473 78.5051 33.8418C78.259 33.7305 78.051 33.5898 77.8811 33.4199C77.8167 34.0352 77.6585 34.5889 77.4065 35.0811C77.1604 35.5732 76.8323 35.9951 76.4221 36.3467C76.0178 36.7041 75.5432 36.9795 74.9983 37.1729C74.4534 37.3662 73.8528 37.4629 73.1965 37.4629C72.3001 37.4629 71.553 37.334 70.9553 37.0762C70.3577 36.8184 69.8801 36.4844 69.5227 36.0742C69.1712 35.6641 68.9221 35.2041 68.7757 34.6943C68.6292 34.1904 68.5559 33.6924 68.5559 33.2002C68.5559 32.6729 68.6467 32.1396 68.8284 31.6006C69.01 31.0615 69.2678 30.5605 69.6018 30.0977L71.1839 30.9941C70.9319 31.3691 70.7503 31.7412 70.6389 32.1104C70.5335 32.4736 70.4807 32.8369 70.4807 33.2002C70.4807 33.4404 70.5188 33.6982 70.595 33.9736C70.677 34.2432 70.8206 34.4951 71.0257 34.7295C71.2366 34.9639 71.5208 35.1602 71.8782 35.3184C72.2415 35.4824 72.7044 35.5645 73.2669 35.5645C73.6243 35.5645 73.97 35.5146 74.304 35.415C74.638 35.3154 74.9339 35.1572 75.1917 34.9404C75.4495 34.7295 75.6575 34.457 75.8157 34.123C75.9739 33.7891 76.053 33.3936 76.053 32.9365V22.2578H77.8987V30.5898C77.8987 31.1465 78.0247 31.5361 78.2766 31.7588C78.5344 31.9814 78.8977 32.0928 79.3665 32.0928H79.9378C80.1018 32.0928 80.2132 32.1367 80.2717 32.2246C80.3362 32.3125 80.3743 32.418 80.386 32.541V33.543ZM77.0198 21.1943L75.8421 19.9463C75.6956 19.7939 75.5872 19.6299 75.5169 19.4541C75.4524 19.29 75.4202 19.0908 75.4202 18.8564H76.3255C76.3313 19.2725 76.5628 19.7119 77.0198 20.1748C77.4768 19.7119 77.7083 19.2725 77.7141 18.8564H78.6194C78.6194 19.0908 78.5872 19.29 78.5227 19.4541C78.4465 19.6299 78.3352 19.7939 78.1887 19.9463L77.0198 21.1943ZM84.2268 30.2646C84.1741 29.708 84.0393 29.3184 83.8225 29.0957C83.6057 28.8672 83.2893 28.7529 82.8733 28.7529C82.6389 28.7529 82.3489 28.791 82.0032 28.8672C81.6633 28.9434 81.3352 29.0576 81.0188 29.21L80.5354 27.4082C80.6702 27.3496 80.8401 27.2881 81.0452 27.2236C81.2561 27.1592 81.4788 27.1006 81.7132 27.0479C81.9475 26.9893 82.1936 26.9424 82.4514 26.9072C82.7092 26.8662 82.9641 26.8457 83.2161 26.8457C83.6848 26.8457 84.0891 26.9219 84.429 27.0742C84.7747 27.2207 85.0647 27.4287 85.2991 27.6982C85.5393 27.9678 85.7239 28.2871 85.8528 28.6562C85.9817 29.0254 86.0755 29.4297 86.134 29.8691C86.1575 30.0859 86.1839 30.3027 86.2132 30.5195C86.2483 30.7305 86.3069 30.9414 86.3889 31.1523C86.471 31.3574 86.5794 31.5479 86.7141 31.7236C86.8548 31.8936 87.0335 32.0459 87.2503 32.1807V34H79.8499C79.6917 34 79.5803 33.9561 79.5159 33.8682C79.4456 33.7803 79.4104 33.6836 79.4104 33.5781V32.6025C79.4104 32.4854 79.4485 32.3711 79.5247 32.2598C79.595 32.1484 79.7034 32.0928 79.8499 32.0928H84.9651C84.8714 31.9756 84.7395 31.7676 84.5696 31.4688C84.3997 31.1641 84.2854 30.7627 84.2268 30.2646ZM82.1174 24.9121C82.1174 24.6484 82.2141 24.4258 82.4075 24.2441C82.6008 24.0566 82.8323 23.9629 83.1018 23.9629C83.3831 23.9629 83.6204 24.0566 83.8137 24.2441C84.0071 24.4258 84.1038 24.6484 84.1038 24.9121C84.1038 25.1816 84.0071 25.4072 83.8137 25.5889C83.6204 25.7705 83.3831 25.8613 83.1018 25.8613C82.8323 25.8613 82.6008 25.7705 82.4075 25.5889C82.2141 25.4072 82.1174 25.1816 82.1174 24.9121ZM89.6409 22.2578H91.4866V34H89.6409V22.2578ZM93.3235 34V32.0928H97.7971V30.4492C97.7971 30.0742 97.7532 29.7725 97.6653 29.5439C97.5774 29.3096 97.4485 29.1279 97.2786 28.999C97.1145 28.8701 96.9094 28.7822 96.6633 28.7354C96.4173 28.6885 96.1389 28.665 95.8284 28.665H94.2464V26.8457H96.2063C96.6516 26.8457 97.0852 26.8926 97.5071 26.9863C97.929 27.0742 98.301 27.2441 98.6233 27.4961C98.9514 27.7422 99.2092 28.0908 99.3967 28.542C99.5901 28.9873 99.6868 29.5703 99.6868 30.291V34H93.3235Z" fill="white"/>
<path d="M330.031 32.7539C330.031 32.4727 329.902 32.1875 329.645 31.8984C329.387 31.6016 329.09 31.3086 328.754 31.0195C328.504 30.793 328.25 30.5586 327.992 30.3164C327.734 30.0664 327.504 29.8008 327.301 29.5195C327.105 29.2305 326.941 28.9219 326.809 28.5938C326.676 28.2656 326.609 27.9062 326.609 27.5156C326.609 26.8281 326.742 26.2383 327.008 25.7461C327.281 25.2461 327.633 24.8359 328.062 24.5156C328.492 24.1953 328.965 23.9609 329.48 23.8125C329.996 23.6562 330.504 23.5781 331.004 23.5781C331.34 23.5781 331.668 23.6055 331.988 23.6602C332.309 23.707 332.602 23.7656 332.867 23.8359C333.156 23.8984 333.445 23.9844 333.734 24.0938L333.137 26.5898C332.816 26.4258 332.445 26.3008 332.023 26.2148C331.602 26.1211 331.18 26.0742 330.758 26.0742C330.297 26.0742 329.906 26.1758 329.586 26.3789C329.273 26.582 329.117 26.8633 329.117 27.2227C329.117 27.5273 329.262 27.8438 329.551 28.1719C329.848 28.5 330.188 28.8359 330.57 29.1797C330.812 29.3906 331.059 29.6172 331.309 29.8594C331.559 30.1016 331.781 30.3555 331.977 30.6211C332.172 30.8867 332.328 31.1641 332.445 31.4531C332.562 31.7422 332.621 32.0547 332.621 32.3906C332.621 32.9609 332.473 33.5547 332.176 34.1719C331.887 34.7891 331.434 35.3594 330.816 35.8828C330.207 36.4062 329.43 36.8359 328.484 37.1719C327.539 37.5078 326.418 37.6758 325.121 37.6758C323.941 37.6758 322.926 37.5 322.074 37.1484C321.23 36.8047 320.539 36.3555 320 35.8008C319.469 35.2539 319.074 34.6406 318.816 33.9609C318.559 33.2812 318.43 32.5977 318.43 31.9102C318.43 31.1211 318.566 30.3945 318.84 29.7305C319.121 29.0586 319.473 28.4141 319.895 27.7969L321.957 28.9922C321.621 29.4922 321.375 29.9805 321.219 30.457C321.07 30.9258 320.996 31.3555 320.996 31.7461C320.996 32.2305 321.09 32.6719 321.277 33.0703C321.465 33.4688 321.742 33.8125 322.109 34.1016C322.484 34.3984 322.941 34.6328 323.48 34.8047C324.02 34.9766 324.645 35.0625 325.355 35.0625C326.043 35.0625 326.672 34.9883 327.242 34.8398C327.82 34.6914 328.316 34.5078 328.73 34.2891C329.152 34.0703 329.473 33.8242 329.691 33.5508C329.918 33.2852 330.031 33.0195 330.031 32.7539ZM340.426 32.6484C340.426 33.3047 340.34 33.918 340.168 34.4883C339.996 35.0586 339.734 35.5547 339.383 35.9766C339.031 36.3984 338.602 36.7305 338.094 36.9727C337.586 37.2148 336.996 37.3359 336.324 37.3359C336.043 37.3359 335.785 37.3242 335.551 37.3008C335.324 37.2773 335.121 37.25 334.941 37.2188C334.84 37.2031 334.742 37.1875 334.648 37.1719C334.555 37.1562 334.457 37.1367 334.355 37.1133L334.648 34.6172L335.258 34.7461C335.43 34.7773 335.609 34.8047 335.797 34.8281C335.992 34.8516 336.168 34.8633 336.324 34.8633C336.965 34.8633 337.395 34.6562 337.613 34.2422C337.832 33.8359 337.941 33.2422 337.941 32.4609V24.3047H340.426V32.6484ZM338.047 20.8828C338.047 20.5312 338.176 20.2344 338.434 19.9922C338.691 19.7422 339 19.6172 339.359 19.6172C339.742 19.6172 340.059 19.7422 340.309 19.9922C340.566 20.2344 340.695 20.5312 340.695 20.8828C340.695 21.2422 340.566 21.543 340.309 21.7852C340.059 22.0273 339.742 22.1484 339.359 22.1484C339 22.1484 338.691 22.0273 338.434 21.7852C338.176 21.543 338.047 21.2422 338.047 20.8828ZM343.707 17.3438H346.191V30.457H347.691C347.926 30.457 348.086 30.5156 348.172 30.6328C348.258 30.75 348.301 30.8906 348.301 31.0547V32.3906C348.301 32.5078 348.246 32.6406 348.137 32.7891C348.035 32.9297 347.887 33 347.691 33H343.707V17.3438ZM347.598 33C347.387 33 347.238 32.9414 347.152 32.8242C347.059 32.707 347.012 32.5781 347.012 32.4375V31.1367C347.012 30.9805 347.062 30.8281 347.164 30.6797C347.258 30.5312 347.402 30.457 347.598 30.457H351.371C351.707 30.457 351.922 30.3555 352.016 30.1523C352.117 29.9492 352.168 29.6758 352.168 29.332V26.332H354.664V28.4531C354.664 29.0391 354.801 29.5195 355.074 29.8945C355.355 30.2695 355.859 30.457 356.586 30.457H357.137C357.465 30.457 357.68 30.3633 357.781 30.1758C357.891 29.9883 357.945 29.707 357.945 29.332V25.4766H360.43V28.4531C360.43 29.0391 360.566 29.5195 360.84 29.8945C361.121 30.2695 361.629 30.457 362.363 30.457H363.652V24.3047H366.125V33H362.305C361.688 33 361.188 32.8516 360.805 32.5547C360.43 32.25 360.137 31.918 359.926 31.5586C359.684 32.0352 359.328 32.3945 358.859 32.6367C358.391 32.8789 357.852 33 357.242 33H356.551C355.895 33 355.375 32.8594 354.992 32.5781C354.609 32.2891 354.32 31.9648 354.125 31.6055C353.875 32.0508 353.512 32.3945 353.035 32.6367C352.566 32.8789 352.004 33 351.348 33H347.598ZM374.129 30.457V28.5117C374.129 27.6836 373.973 27.0469 373.66 26.6016C373.348 26.1562 372.883 25.9336 372.266 25.9336C372.008 25.9336 371.758 25.9883 371.516 26.0977C371.273 26.207 371.059 26.3633 370.871 26.5664C370.684 26.7617 370.527 26.9961 370.402 27.2695C370.285 27.543 370.227 27.8555 370.227 28.207C370.227 28.6211 370.293 28.9727 370.426 29.2617C370.559 29.543 370.734 29.7734 370.953 29.9531C371.18 30.1328 371.434 30.2617 371.715 30.3398C372.004 30.418 372.301 30.457 372.605 30.457H374.129ZM372.664 33C371.773 33 371.02 32.8711 370.402 32.6133C369.785 32.3555 369.277 32.0234 368.879 31.6172C368.488 31.2031 368.203 30.7344 368.023 30.2109C367.852 29.6797 367.766 29.1445 367.766 28.6055C367.766 27.918 367.883 27.2656 368.117 26.6484C368.352 26.0312 368.672 25.4883 369.078 25.0195C369.484 24.5508 369.973 24.1836 370.543 23.918C371.113 23.6445 371.738 23.5078 372.418 23.5078C373.043 23.5078 373.613 23.6172 374.129 23.8359C374.652 24.0469 375.098 24.3438 375.465 24.7266C375.84 25.1094 376.125 25.5703 376.32 26.1094C376.516 26.6406 376.613 27.2266 376.613 27.8672V30.457H378.172C378.383 30.457 378.531 30.5156 378.617 30.6328C378.711 30.75 378.758 30.8906 378.758 31.0547V32.3906C378.758 32.5078 378.711 32.6406 378.617 32.7891C378.531 32.9297 378.383 33 378.172 33H372.664ZM378.043 33C377.832 33 377.684 32.9414 377.598 32.8242C377.504 32.707 377.457 32.5781 377.457 32.4375V31.1367C377.457 30.9805 377.508 30.8281 377.609 30.6797C377.703 30.5312 377.848 30.457 378.043 30.457H381.816C382.152 30.457 382.367 30.3555 382.461 30.1523C382.562 29.9492 382.613 29.6758 382.613 29.332V26.332H385.109V28.4531C385.109 29.0391 385.246 29.5195 385.52 29.8945C385.801 30.2695 386.305 30.457 387.031 30.457H387.582C387.91 30.457 388.125 30.3633 388.227 30.1758C388.336 29.9883 388.391 29.707 388.391 29.332V25.4766H390.875V28.4531C390.875 29.0391 391.012 29.5195 391.285 29.8945C391.566 30.2695 392.074 30.457 392.809 30.457H394.098V24.3047H396.57V33H392.75C392.133 33 391.633 32.8516 391.25 32.5547C390.875 32.25 390.582 31.918 390.371 31.5586C390.129 32.0352 389.773 32.3945 389.305 32.6367C388.836 32.8789 388.297 33 387.688 33H386.996C386.34 33 385.82 32.8594 385.438 32.5781C385.055 32.2891 384.766 31.9648 384.57 31.6055C384.32 32.0508 383.957 32.3945 383.48 32.6367C383.012 32.8789 382.449 33 381.793 33H378.043ZM388.391 18.0586C388.391 17.7148 388.516 17.4219 388.766 17.1797C389.023 16.9375 389.344 16.8164 389.727 16.8164C390.086 16.8164 390.398 16.9375 390.664 17.1797C390.93 17.4219 391.062 17.7148 391.062 18.0586C391.062 18.4258 390.93 18.7305 390.664 18.9727C390.398 19.2148 390.086 19.3359 389.727 19.3359C389.344 19.3359 389.023 19.2148 388.766 18.9727C388.516 18.7305 388.391 18.4258 388.391 18.0586ZM386.703 20.8828C386.703 20.5312 386.828 20.2344 387.078 19.9922C387.328 19.7422 387.641 19.6172 388.016 19.6172C388.391 19.6172 388.703 19.7422 388.953 19.9922C389.203 20.2344 389.328 20.5312 389.328 20.8828C389.328 21.2422 389.203 21.543 388.953 21.7852C388.703 22.0273 388.391 22.1484 388.016 22.1484C387.641 22.1484 387.328 22.0273 387.078 21.7852C386.828 21.543 386.703 21.2422 386.703 20.8828ZM390.113 20.8828C390.113 20.5312 390.234 20.2344 390.477 19.9922C390.727 19.7422 391.047 19.6172 391.438 19.6172C391.812 19.6172 392.125 19.7422 392.375 19.9922C392.625 20.2344 392.75 20.5312 392.75 20.8828C392.75 21.2422 392.625 21.543 392.375 21.7852C392.125 22.0273 391.812 22.1484 391.438 22.1484C391.047 22.1484 390.727 22.0273 390.477 21.7852C390.234 21.543 390.113 21.2422 390.113 20.8828ZM404.586 33C403.68 33 402.918 32.8711 402.301 32.6133C401.684 32.3555 401.18 32.0234 400.789 31.6172C400.406 31.2031 400.125 30.7344 399.945 30.2109C399.773 29.6797 399.688 29.1445 399.688 28.6055C399.688 27.918 399.797 27.2656 400.016 26.6484C400.242 26.0312 400.559 25.4883 400.965 25.0195C401.379 24.5508 401.871 24.1836 402.441 23.918C403.012 23.6445 403.637 23.5078 404.316 23.5078C404.957 23.5078 405.535 23.6172 406.051 23.8359C406.574 24.0469 407.016 24.3438 407.375 24.7266C407.742 25.1094 408.023 25.5703 408.219 26.1094C408.414 26.6406 408.512 27.2266 408.512 27.8672V32.6719C408.512 33.5859 408.375 34.3672 408.102 35.0156C407.828 35.6719 407.438 36.1992 406.93 36.5977C406.43 36.9961 405.832 37.2891 405.137 37.4766C404.449 37.6641 403.691 37.7578 402.863 37.7578C402.551 37.7578 402.211 37.7461 401.844 37.7227C401.477 37.707 401.062 37.6641 400.602 37.5938L400.777 35.1445C401.207 35.1992 401.613 35.2422 401.996 35.2734C402.379 35.3047 402.703 35.3203 402.969 35.3203C403.383 35.3203 403.77 35.2891 404.129 35.2266C404.488 35.1719 404.809 35.0586 405.09 34.8867C405.371 34.7227 405.598 34.4922 405.77 34.1953C405.941 33.8984 406.043 33.5 406.074 33H404.586ZM406.051 30.457V28.5117C406.051 27.6836 405.887 27.0469 405.559 26.6016C405.23 26.1562 404.773 25.9336 404.188 25.9336C403.93 25.9336 403.68 25.9883 403.438 26.0977C403.195 26.207 402.977 26.3633 402.781 26.5664C402.586 26.7617 402.43 26.9961 402.312 27.2695C402.195 27.543 402.137 27.8555 402.137 28.207C402.137 28.6211 402.199 28.9727 402.324 29.2617C402.457 29.543 402.633 29.7734 402.852 29.9531C403.078 30.1328 403.336 30.2617 403.625 30.3398C403.922 30.418 404.223 30.457 404.527 30.457H406.051Z" fill="black"/>
</svg>
