<svg width="584" height="966" viewBox="0 0 584 966" fill="none" xmlns="http://www.w3.org/2000/svg">
<path d="M237.836 980.647C147.051 972.296 63.1529 910.579 28.0708 826.322C-7.01129 742.065 8.27834 638.96 66.2635 568.54C108.319 517.471 168.976 484.522 211.659 433.98C270.221 364.628 288.546 263.482 258.042 177.957C227.538 92.4442 149.359 25.792 60.1677 9.25452" stroke="white" stroke-opacity="0.1" stroke-width="15" stroke-miterlimit="10"/>
<path d="M90.2827 8.90283C175.749 30.9779 250.228 99.8653 280.343 186.295C283.78 196.177 286.64 206.248 288.897 216.431C306.47 295.402 289.963 382.396 242.615 445.055C216.576 479.512 181.945 505.806 149.811 535.302C134.784 549.102 120.222 563.467 107.266 579.477C78.5176 615.001 59.5655 658.197 51.952 702.636C44.7274 744.802 47.6248 788.199 61.7981 827.64C69.2987 848.535 79.8471 868.086 92.854 885.867C130.307 937.061 188.217 973.928 252.436 982.568" stroke="white" stroke-opacity="0.1" stroke-width="14.29" stroke-miterlimit="10"/>
<path d="M120.398 8.55127C202.152 36.1765 272.918 107.299 302.644 194.62C306.043 204.603 308.89 214.761 311.198 225.033C329.122 304.619 316.429 392.078 273.57 456.131C250.554 490.524 218.746 516.931 188.681 546.503C174.62 560.353 160.773 574.656 148.268 590.402C120.536 625.298 101.132 666.949 92.139 709.442C83.5974 749.762 84.2622 791.074 95.513 828.946C101.458 849.012 110.301 867.898 121.502 885.264C153.762 935.266 205.977 973.389 267.048 984.489" stroke="white" stroke-opacity="0.1" stroke-width="13.57" stroke-miterlimit="10"/>
<path d="M150.513 8.19971C228.542 41.3626 295.595 114.733 324.945 202.958C328.294 213.041 331.154 223.287 333.512 233.634C351.774 313.823 342.881 401.621 304.538 467.193C284.52 501.436 255.571 528.032 227.576 557.691C214.481 571.592 201.349 585.831 189.295 601.314C162.579 635.582 142.737 675.676 132.351 716.222C122.48 754.697 120.912 793.925 129.266 830.227C133.668 849.464 140.78 867.697 150.175 884.649C177.242 933.457 223.775 972.823 281.673 986.385" stroke="white" stroke-opacity="0.1" stroke-width="12.86" stroke-miterlimit="10"/>
<path d="M180.628 7.84814C254.931 46.5612 318.285 122.166 347.246 211.296C350.557 221.479 353.405 231.814 355.813 242.248C374.426 323.052 369.284 411.026 335.494 478.281C318.41 512.285 292.372 539.157 266.446 568.905C254.317 582.868 241.912 597.032 230.297 612.251C204.597 645.904 184.316 684.441 172.538 723.041C161.35 759.67 157.537 796.813 162.993 831.545C165.853 849.954 171.234 867.521 178.835 884.059C200.709 931.675 241.561 972.296 296.297 988.306" stroke="white" stroke-opacity="0.1" stroke-width="12.14" stroke-miterlimit="10"/>
<path d="M210.743 7.49646C281.334 51.7597 340.975 129.6 369.535 219.633C372.796 229.917 375.643 240.34 378.101 250.85C397.066 332.269 395.574 420.268 366.437 489.344C352.226 523.034 329.16 550.258 305.303 580.105C294.14 594.119 282.45 608.22 271.287 623.176C246.603 656.2 225.87 693.193 212.725 729.834C200.22 764.617 194.174 799.676 196.708 832.839C198.025 850.419 201.688 867.32 207.47 883.456C224.152 929.879 259.309 971.756 310.885 990.228" stroke="white" stroke-opacity="0.1" stroke-width="11.43" stroke-miterlimit="10"/>
<path d="M240.859 7.1449C307.724 56.9583 363.665 137.034 391.836 227.971C395.059 238.368 397.907 248.878 400.403 259.464C419.706 341.486 421.75 429.397 397.392 500.432C385.978 533.745 365.96 561.395 344.186 591.319C333.989 605.382 323.026 619.421 312.302 634.113C288.634 666.51 267.462 701.945 252.925 736.653C239.103 769.602 230.812 802.564 230.448 834.157C230.222 850.921 232.154 867.157 236.13 882.866C247.607 928.096 277.095 971.229 325.497 992.149" stroke="white" stroke-opacity="0.1" stroke-width="10.71" stroke-miterlimit="10"/>
<path d="M270.974 6.79333C334.127 62.1443 386.342 144.48 414.137 236.296C417.31 246.794 420.157 257.392 422.704 268.053C442.358 350.69 447.751 438.375 428.348 511.494C419.631 544.368 402.761 572.496 383.056 602.507C373.824 616.621 363.577 630.597 353.304 645.025C330.652 676.794 309.028 710.685 293.112 743.433C277.973 774.537 267.437 805.414 264.176 835.438C262.394 851.373 262.608 866.943 264.79 882.238C271.074 926.275 294.868 970.664 340.122 994.032" stroke="white" stroke-opacity="0.1" stroke-width="10" stroke-miterlimit="10"/>
<path d="M301.089 6.44165C360.516 67.3428 409.032 151.914 436.438 244.634C439.573 255.232 442.421 265.918 445.005 276.667C465.01 359.907 473.539 447.316 459.316 522.569C453.182 554.966 439.586 583.609 421.938 613.708C413.673 627.872 404.153 641.785 394.319 655.949C372.683 687.103 350.62 719.437 333.311 750.239C316.843 779.497 304.087 808.302 297.916 836.744C294.592 851.85 293.087 866.755 293.45 881.648C294.542 924.479 312.653 970.136 354.734 995.953" stroke="white" stroke-opacity="0.1" stroke-width="9.29" stroke-miterlimit="10"/>
<path d="M331.204 6.09009C386.906 72.5414 431.722 159.347 458.739 252.972C461.824 263.671 464.672 274.444 467.306 285.268C487.65 369.124 499.076 456.219 490.271 533.645C486.634 565.564 476.387 594.734 460.808 624.921C453.509 639.135 444.703 652.986 435.322 666.886C414.701 697.412 392.199 728.189 373.498 757.058C355.713 784.469 340.711 811.191 331.631 838.062C326.764 852.34 323.528 866.592 322.085 881.057C317.984 922.696 330.401 969.609 369.334 997.887" stroke="white" stroke-opacity="0.1" stroke-width="8.57" stroke-miterlimit="10"/>
<path d="M361.307 5.72595C413.296 77.7274 454.399 166.769 481.015 261.297C484.063 272.096 486.91 282.971 489.582 293.87C510.277 378.34 524.325 465.147 521.202 544.72C519.96 576.175 513.162 605.847 499.666 636.122C493.332 650.399 485.242 664.174 476.311 677.811C456.707 707.709 433.754 736.941 413.685 763.851C394.583 789.417 377.349 814.054 365.358 839.356C358.949 852.804 353.982 866.391 350.746 880.455C341.452 920.901 348.187 969.069 383.946 999.796" stroke="white" stroke-opacity="0.1" stroke-width="7.86" stroke-miterlimit="10"/>
<path d="M391.422 5.37439C439.686 82.9135 477.076 174.202 503.316 269.635C506.314 280.547 509.161 291.497 511.883 302.471C532.929 387.545 549.323 474.15 552.157 555.783C553.236 586.798 549.962 616.947 538.536 647.31C533.168 661.638 525.805 675.35 517.326 688.723C498.738 718.006 475.346 745.681 453.885 770.644C433.465 794.364 413.986 816.917 399.098 840.649C391.146 853.281 384.448 866.19 379.406 879.839C364.919 919.092 365.96 968.516 398.559 1001.69" stroke="white" stroke-opacity="0.1" stroke-width="7.14" stroke-miterlimit="10"/>
<path d="M421.537 5.02283C466.089 88.1121 499.766 181.636 525.617 277.96C528.577 288.973 531.424 300.01 534.184 311.073C555.569 396.762 574.07 483.291 583.113 566.858C586.424 597.497 586.775 628.073 577.406 658.511C573.003 672.889 566.356 686.538 558.328 699.647C540.756 728.302 516.912 754.421 494.072 777.438C472.335 799.324 450.611 819.78 432.813 841.955C423.306 853.759 414.902 866.014 408.054 879.249C388.374 917.309 383.733 967.989 413.171 1003.63" stroke="white" stroke-opacity="0.1" stroke-width="6.43" stroke-miterlimit="10"/>
<path d="M451.652 4.67114C492.479 93.3105 522.456 189.07 547.918 286.298C550.828 297.411 553.675 308.536 556.485 319.674C578.221 405.966 598.603 492.583 614.068 577.933C619.562 608.27 623.576 639.186 616.288 669.724C612.852 684.152 606.931 697.739 599.343 710.584C582.774 738.612 558.504 763.185 534.271 784.256C511.218 804.297 487.261 822.668 466.553 843.274C455.503 854.248 445.368 865.838 436.714 878.659C411.841 915.526 401.519 967.462 427.783 1005.55" stroke="white" stroke-opacity="0.1" stroke-width="5.71" stroke-miterlimit="10"/>
<path d="M481.767 4.31958C523.108 109.27 551.003 218.943 578.786 328.276C600.861 415.182 622.949 502.089 645.024 588.996C652.675 619.107 660.376 650.286 655.159 680.912C647.319 726.921 611.836 763.148 574.458 791.037C537.081 818.938 495.439 842.357 465.361 878.031C435.284 913.705 419.279 966.897 442.396 1007.43" stroke="white" stroke-opacity="0.1" stroke-width="5" stroke-miterlimit="10"/>
</svg>
