<svg width="31" height="28" viewBox="0 0 31 28" fill="none" xmlns="http://www.w3.org/2000/svg">
<g clip-path="url(#clip0_33_33)">
<path d="M25.6289 24.7588L20.8326 18.856C21.8779 17.705 22.6649 16.2942 23.0784 14.6909C24.4517 9.36586 21.1904 3.9048 15.8088 2.51691C10.4272 1.12903 4.93215 4.33188 3.55884 9.65695C2.18554 14.982 5.44608 20.4435 10.8277 21.8314C13.5037 22.5215 16.2092 22.0759 18.4205 20.7992L23.205 26.6875C23.4245 26.9576 23.716 27.1361 24.0301 27.2171C24.4903 27.3357 24.9986 27.2451 25.3964 26.9289C26.0659 26.396 26.1695 25.4247 25.6289 24.7588ZM11.4287 19.5008C7.34618 18.448 4.8722 14.3046 5.91416 10.2644C6.95612 6.22411 11.1252 3.79462 15.2077 4.84749C19.2903 5.90035 21.7649 10.0438 20.7231 14.0835C19.6813 18.1232 15.5119 20.5539 11.4287 19.5008Z" fill="#231F20"/>
</g>
<defs>
<clipPath id="clip0_33_33">
<rect width="25.7689" height="21.8645" fill="white" transform="translate(6.04932) rotate(14.4612)"/>
</clipPath>
</defs>
</svg>
