<svg width="391" height="45" viewBox="0 0 391 45" fill="none" xmlns="http://www.w3.org/2000/svg">
<rect width="391" height="45" rx="22.5" fill="white"/>
<rect x="11" y="8" width="75" height="30" rx="15" fill="#155DFC"/>
<path d="M40.0078 23.4922C40.138 23.7161 40.2604 23.9766 40.375 24.2734C40.4896 24.5703 40.5938 24.875 40.6875 25.1875C40.7812 25.4948 40.8542 25.8047 40.9062 26.1172C40.9583 26.4297 40.9844 26.7188 40.9844 26.9844C40.9844 27.5312 40.8958 28.0521 40.7188 28.5469C40.5417 29.0469 40.2734 29.4844 39.9141 29.8594C39.5599 30.2344 39.1198 30.5312 38.5938 30.75C38.0729 30.9688 37.4688 31.0781 36.7812 31.0781C36.0208 31.0781 35.3776 30.9714 34.8516 30.7578C34.3255 30.5443 33.901 30.2604 33.5781 29.9062C33.2604 29.5521 33.0286 29.1484 32.8828 28.6953C32.737 28.2422 32.6641 27.7734 32.6641 27.2891C32.6641 26.8203 32.7422 26.3464 32.8984 25.8672C33.0547 25.388 33.2734 24.9427 33.5547 24.5312L34.9688 25.3281C34.7396 25.6927 34.5807 26.0286 34.4922 26.3359C34.4036 26.638 34.3594 26.9557 34.3594 27.2891C34.3594 27.5495 34.4062 27.8047 34.5 28.0547C34.599 28.3099 34.75 28.5365 34.9531 28.7344C35.1615 28.9323 35.4219 29.0911 35.7344 29.2109C36.0521 29.3307 36.4245 29.3906 36.8516 29.3906C37.2474 29.3906 37.599 29.3307 37.9062 29.2109C38.2135 29.0911 38.474 28.9323 38.6875 28.7344C38.901 28.5365 39.0599 28.3021 39.1641 28.0312C39.2734 27.7604 39.3281 27.4635 39.3281 27.1406C39.3281 26.7031 39.2448 26.2318 39.0781 25.7266C38.9115 25.2214 38.7031 24.7734 38.4531 24.3828L40.0078 23.4922ZM35.9062 21.5625C35.9062 21.3281 35.9896 21.1276 36.1562 20.9609C36.3229 20.7943 36.5312 20.7109 36.7812 20.7109C37.0312 20.7109 37.2396 20.7943 37.4062 20.9609C37.5781 21.1276 37.6641 21.3281 37.6641 21.5625C37.6641 21.7917 37.5781 21.9896 37.4062 22.1562C37.2396 22.3229 37.0312 22.4062 36.7812 22.4062C36.5312 22.4062 36.3229 22.3229 36.1562 22.1562C35.9896 21.9896 35.9062 21.7917 35.9062 21.5625ZM43.1016 17.5625H44.7422V28H43.1016V17.5625ZM49.2109 27.7656C49.2109 28.2031 49.1536 28.612 49.0391 28.9922C48.9245 29.3724 48.75 29.7031 48.5156 29.9844C48.2812 30.2656 47.9948 30.487 47.6562 30.6484C47.3177 30.8099 46.9245 30.8906 46.4766 30.8906C46.2891 30.8906 46.1172 30.8828 45.9609 30.8672C45.8099 30.8516 45.6745 30.8333 45.5547 30.8125C45.487 30.8021 45.4219 30.7917 45.3594 30.7812C45.2969 30.7708 45.2318 30.7578 45.1641 30.7422L45.3594 29.0781L45.7656 29.1641C45.8802 29.1849 46 29.2031 46.125 29.2188C46.2552 29.2344 46.3724 29.2422 46.4766 29.2422C46.9036 29.2422 47.1901 29.1042 47.3359 28.8281C47.4818 28.5573 47.5547 28.1615 47.5547 27.6406V22.2031H49.2109V27.7656ZM47.7266 34.0156L46.6797 32.9062C46.5495 32.7656 46.4531 32.6172 46.3906 32.4609C46.3333 32.3203 46.3047 32.1458 46.3047 31.9375H47.1094C47.1146 32.3073 47.3203 32.6953 47.7266 33.1016C48.1328 32.6953 48.3385 32.3073 48.3438 31.9375H49.1484C49.1484 32.1458 49.1198 32.3203 49.0625 32.4609C48.9948 32.6172 48.8958 32.7656 48.7656 32.9062L47.7266 34.0156ZM54.5703 26.3047V25.0078C54.5703 24.4557 54.4661 24.0312 54.2578 23.7344C54.0495 23.4375 53.7396 23.2891 53.3281 23.2891C53.1562 23.2891 52.9896 23.3255 52.8281 23.3984C52.6667 23.4714 52.5234 23.5755 52.3984 23.7109C52.2734 23.8411 52.1693 23.9974 52.0859 24.1797C52.0078 24.362 51.9688 24.5703 51.9688 24.8047C51.9688 25.0807 52.013 25.3151 52.1016 25.5078C52.1901 25.6953 52.3073 25.849 52.4531 25.9688C52.6042 26.0885 52.7734 26.1745 52.9609 26.2266C53.1536 26.2786 53.3516 26.3047 53.5547 26.3047H54.5703ZM53.5938 28C53 28 52.4974 27.9141 52.0859 27.7422C51.6745 27.5703 51.3359 27.349 51.0703 27.0781C50.8099 26.8021 50.6198 26.4896 50.5 26.1406C50.3854 25.7865 50.3281 25.4297 50.3281 25.0703C50.3281 24.612 50.4062 24.1771 50.5625 23.7656C50.7188 23.3542 50.9323 22.9922 51.2031 22.6797C51.474 22.3672 51.7995 22.1224 52.1797 21.9453C52.5599 21.763 52.9766 21.6719 53.4297 21.6719C53.8464 21.6719 54.2266 21.7448 54.5703 21.8906C54.9193 22.0312 55.2161 22.2292 55.4609 22.4844C55.7109 22.7396 55.901 23.0469 56.0312 23.4062C56.1615 23.7604 56.2266 24.151 56.2266 24.5781V26.3047H57.2656C57.4062 26.3047 57.5052 26.3438 57.5625 26.4219C57.625 26.5 57.6562 26.5938 57.6562 26.7031V27.5938C57.6562 27.6719 57.625 27.7604 57.5625 27.8594C57.5052 27.9531 57.4062 28 57.2656 28H53.5938ZM56.7891 20.875L59.7656 16.3438L60.9609 17.1562L58.0469 21.6562L56.7891 20.875ZM57.1094 28C56.9792 28 56.8854 27.9609 56.8281 27.8828C56.7656 27.8047 56.7344 27.7188 56.7344 27.625V26.7578C56.7344 26.6536 56.7682 26.5521 56.8359 26.4531C56.8984 26.3542 56.9896 26.3047 57.1094 26.3047H62.1875V24.9219C62.1875 24.5729 62.1406 24.2995 62.0469 24.1016C61.9531 23.8984 61.8281 23.7474 61.6719 23.6484C61.5208 23.5443 61.3411 23.4818 61.1328 23.4609C60.9297 23.4349 60.7109 23.4219 60.4766 23.4219H58.6953V21.9531L61.5312 17.4609L62.8984 18.375L60.6719 21.8047H60.8125C61.2031 21.8047 61.5833 21.849 61.9531 21.9375C62.3229 22.0208 62.6458 22.1771 62.9219 22.4062C63.1979 22.6302 63.4193 22.9375 63.5859 23.3281C63.7578 23.7135 63.8438 24.2005 63.8438 24.7891V28H57.1094Z" fill="white"/>
<g clip-path="url(#clip0_33_28)">
<path d="M376.629 30.7588L371.833 24.856C372.878 23.705 373.665 22.2942 374.078 20.6909C375.452 15.3659 372.19 9.9048 366.809 8.51691C361.427 7.12903 355.932 10.3319 354.559 15.657C353.186 20.982 356.446 26.4435 361.828 27.8314C364.504 28.5215 367.209 28.0759 369.42 26.7992L374.205 32.6875C374.425 32.9576 374.716 33.1361 375.03 33.2171C375.49 33.3357 375.999 33.2451 376.396 32.9289C377.066 32.396 377.17 31.4247 376.629 30.7588ZM362.429 25.5008C358.346 24.448 355.872 20.3046 356.914 16.2644C357.956 12.2241 362.125 9.79462 366.208 10.8475C370.29 11.9004 372.765 16.0438 371.723 20.0835C370.681 24.1232 366.512 26.5539 362.429 25.5008Z" fill="#231F20"/>
</g>
<path d="M224.281 24.9844C224.281 24.6719 224.393 24.4036 224.617 24.1797C224.846 23.9557 225.122 23.8438 225.445 23.8438C225.758 23.8438 226.031 23.9505 226.266 24.1641C226.5 24.3776 226.617 24.6406 226.617 24.9531C226.617 25.2604 226.5 25.526 226.266 25.75C226.036 25.974 225.763 26.0859 225.445 26.0859C225.133 26.0859 224.859 25.9792 224.625 25.7656C224.396 25.5521 224.281 25.2917 224.281 24.9844ZM228.594 24.9844C228.594 24.6719 228.706 24.4036 228.93 24.1797C229.159 23.9557 229.435 23.8438 229.758 23.8438C230.07 23.8438 230.344 23.9505 230.578 24.1641C230.812 24.3776 230.93 24.6406 230.93 24.9531C230.93 25.2604 230.812 25.526 230.578 25.75C230.349 25.974 230.076 26.0859 229.758 26.0859C229.445 26.0859 229.172 25.9792 228.938 25.7656C228.708 25.5521 228.594 25.2917 228.594 24.9844ZM232.906 24.9844C232.906 24.6719 233.018 24.4036 233.242 24.1797C233.471 23.9557 233.747 23.8438 234.07 23.8438C234.383 23.8438 234.656 23.9505 234.891 24.1641C235.125 24.3776 235.242 24.6406 235.242 24.9531C235.242 25.2604 235.125 25.526 234.891 25.75C234.661 25.974 234.388 26.0859 234.07 26.0859C233.758 26.0859 233.484 25.9792 233.25 25.7656C233.021 25.5521 232.906 25.2917 232.906 24.9844ZM243.32 24.3047V23.0078C243.32 22.4557 243.216 22.0312 243.008 21.7344C242.799 21.4375 242.49 21.2891 242.078 21.2891C241.906 21.2891 241.74 21.3255 241.578 21.3984C241.417 21.4714 241.273 21.5755 241.148 21.7109C241.023 21.8411 240.919 21.9974 240.836 22.1797C240.758 22.362 240.719 22.5703 240.719 22.8047C240.719 23.0807 240.763 23.3151 240.852 23.5078C240.94 23.6953 241.057 23.849 241.203 23.9688C241.354 24.0885 241.523 24.1745 241.711 24.2266C241.904 24.2786 242.102 24.3047 242.305 24.3047H243.32ZM242.344 26C241.75 26 241.247 25.9141 240.836 25.7422C240.424 25.5703 240.086 25.349 239.82 25.0781C239.56 24.8021 239.37 24.4896 239.25 24.1406C239.135 23.7865 239.078 23.4297 239.078 23.0703C239.078 22.612 239.156 22.1771 239.312 21.7656C239.469 21.3542 239.682 20.9922 239.953 20.6797C240.224 20.3672 240.549 20.1224 240.93 19.9453C241.31 19.763 241.727 19.6719 242.18 19.6719C242.596 19.6719 242.977 19.7448 243.32 19.8906C243.669 20.0312 243.966 20.2292 244.211 20.4844C244.461 20.7396 244.651 21.0469 244.781 21.4062C244.911 21.7604 244.977 22.151 244.977 22.5781V24.3047H246.016C246.156 24.3047 246.255 24.3438 246.312 24.4219C246.375 24.5 246.406 24.5938 246.406 24.7031V25.5938C246.406 25.6719 246.375 25.7604 246.312 25.8594C246.255 25.9531 246.156 26 246.016 26H242.344ZM245.93 26C245.789 26 245.69 25.9609 245.633 25.8828C245.57 25.8047 245.539 25.7188 245.539 25.625V24.7578C245.539 24.6536 245.573 24.5521 245.641 24.4531C245.703 24.3542 245.799 24.3047 245.93 24.3047H248.445C248.669 24.3047 248.812 24.237 248.875 24.1016C248.943 23.9661 248.977 23.7839 248.977 23.5547V21.5547H250.641V22.9688C250.641 23.3594 250.732 23.6797 250.914 23.9297C251.102 24.1797 251.438 24.3047 251.922 24.3047H252.289C252.508 24.3047 252.651 24.2422 252.719 24.1172C252.792 23.9922 252.828 23.8047 252.828 23.5547V20.9844H254.484V22.9688C254.484 23.3594 254.576 23.6797 254.758 23.9297C254.945 24.1797 255.284 24.3047 255.773 24.3047H256.633V20.2031H258.281V26H255.734C255.323 26 254.99 25.901 254.734 25.7031C254.484 25.5 254.289 25.2786 254.148 25.0391C253.987 25.3568 253.75 25.5964 253.438 25.7578C253.125 25.9193 252.766 26 252.359 26H251.898C251.461 26 251.115 25.9062 250.859 25.7188C250.604 25.526 250.411 25.3099 250.281 25.0703C250.115 25.3672 249.872 25.5964 249.555 25.7578C249.242 25.9193 248.867 26 248.43 26H245.93ZM252.828 16.0391C252.828 15.8099 252.911 15.6146 253.078 15.4531C253.25 15.2917 253.464 15.2109 253.719 15.2109C253.958 15.2109 254.167 15.2917 254.344 15.4531C254.521 15.6146 254.609 15.8099 254.609 16.0391C254.609 16.2839 254.521 16.487 254.344 16.6484C254.167 16.8099 253.958 16.8906 253.719 16.8906C253.464 16.8906 253.25 16.8099 253.078 16.6484C252.911 16.487 252.828 16.2839 252.828 16.0391ZM251.703 17.9219C251.703 17.6875 251.786 17.4896 251.953 17.3281C252.12 17.1615 252.328 17.0781 252.578 17.0781C252.828 17.0781 253.036 17.1615 253.203 17.3281C253.37 17.4896 253.453 17.6875 253.453 17.9219C253.453 18.1615 253.37 18.362 253.203 18.5234C253.036 18.6849 252.828 18.7656 252.578 18.7656C252.328 18.7656 252.12 18.6849 251.953 18.5234C251.786 18.362 251.703 18.1615 251.703 17.9219ZM253.977 17.9219C253.977 17.6875 254.057 17.4896 254.219 17.3281C254.385 17.1615 254.599 17.0781 254.859 17.0781C255.109 17.0781 255.318 17.1615 255.484 17.3281C255.651 17.4896 255.734 17.6875 255.734 17.9219C255.734 18.1615 255.651 18.362 255.484 18.5234C255.318 18.6849 255.109 18.7656 254.859 18.7656C254.599 18.7656 254.385 18.6849 254.219 18.5234C254.057 18.362 253.977 18.1615 253.977 17.9219ZM263.625 26C263.021 26 262.513 25.9141 262.102 25.7422C261.69 25.5703 261.354 25.349 261.094 25.0781C260.839 24.8021 260.651 24.4896 260.531 24.1406C260.417 23.7865 260.359 23.4297 260.359 23.0703C260.359 22.612 260.432 22.1771 260.578 21.7656C260.729 21.3542 260.94 20.9922 261.211 20.6797C261.487 20.3672 261.815 20.1224 262.195 19.9453C262.576 19.763 262.992 19.6719 263.445 19.6719C263.872 19.6719 264.258 19.7448 264.602 19.8906C264.951 20.0312 265.245 20.2292 265.484 20.4844C265.729 20.7396 265.917 21.0469 266.047 21.4062C266.177 21.7604 266.242 22.151 266.242 22.5781V25.7812C266.242 26.3906 266.151 26.9115 265.969 27.3438C265.786 27.7812 265.526 28.1328 265.188 28.3984C264.854 28.6641 264.456 28.8594 263.992 28.9844C263.534 29.1094 263.029 29.1719 262.477 29.1719C262.268 29.1719 262.042 29.1641 261.797 29.1484C261.552 29.138 261.276 29.1094 260.969 29.0625L261.086 27.4297C261.372 27.4661 261.643 27.4948 261.898 27.5156C262.154 27.5365 262.37 27.5469 262.547 27.5469C262.823 27.5469 263.081 27.526 263.32 27.4844C263.56 27.4479 263.773 27.3724 263.961 27.2578C264.148 27.1484 264.299 26.9948 264.414 26.7969C264.529 26.599 264.596 26.3333 264.617 26H263.625ZM264.602 24.3047V23.0078C264.602 22.4557 264.492 22.0312 264.273 21.7344C264.055 21.4375 263.75 21.2891 263.359 21.2891C263.188 21.2891 263.021 21.3255 262.859 21.3984C262.698 21.4714 262.552 21.5755 262.422 21.7109C262.292 21.8411 262.188 21.9974 262.109 22.1797C262.031 22.362 261.992 22.5703 261.992 22.8047C261.992 23.0807 262.034 23.3151 262.117 23.5078C262.206 23.6953 262.323 23.849 262.469 23.9688C262.62 24.0885 262.792 24.1745 262.984 24.2266C263.182 24.2786 263.383 24.3047 263.586 24.3047H264.602ZM277.812 25.8359C277.812 25.6484 277.727 25.4583 277.555 25.2656C277.383 25.0677 277.185 24.8724 276.961 24.6797C276.794 24.5286 276.625 24.3724 276.453 24.2109C276.281 24.0443 276.128 23.8672 275.992 23.6797C275.862 23.487 275.753 23.2812 275.664 23.0625C275.576 22.8438 275.531 22.6042 275.531 22.3438C275.531 21.8854 275.62 21.4922 275.797 21.1641C275.979 20.8307 276.214 20.5573 276.5 20.3438C276.786 20.1302 277.102 19.974 277.445 19.875C277.789 19.7708 278.128 19.7188 278.461 19.7188C278.685 19.7188 278.904 19.737 279.117 19.7734C279.331 19.8047 279.526 19.8438 279.703 19.8906C279.896 19.9323 280.089 19.9896 280.281 20.0625L279.883 21.7266C279.669 21.6172 279.422 21.5339 279.141 21.4766C278.859 21.4141 278.578 21.3828 278.297 21.3828C277.99 21.3828 277.729 21.4505 277.516 21.5859C277.307 21.7214 277.203 21.9089 277.203 22.1484C277.203 22.3516 277.299 22.5625 277.492 22.7812C277.69 23 277.917 23.224 278.172 23.4531C278.333 23.5938 278.497 23.7448 278.664 23.9062C278.831 24.0677 278.979 24.237 279.109 24.4141C279.24 24.5911 279.344 24.776 279.422 24.9688C279.5 25.1615 279.539 25.3698 279.539 25.5938C279.539 25.974 279.44 26.3698 279.242 26.7812C279.049 27.1927 278.747 27.5729 278.336 27.9219C277.93 28.2708 277.411 28.5573 276.781 28.7812C276.151 29.0052 275.404 29.1172 274.539 29.1172C273.753 29.1172 273.076 29 272.508 28.7656C271.945 28.5365 271.484 28.237 271.125 27.8672C270.771 27.5026 270.508 27.0938 270.336 26.6406C270.164 26.1875 270.078 25.7318 270.078 25.2734C270.078 24.7474 270.169 24.263 270.352 23.8203C270.539 23.3724 270.773 22.9427 271.055 22.5312L272.43 23.3281C272.206 23.6615 272.042 23.987 271.938 24.3047C271.839 24.6172 271.789 24.9036 271.789 25.1641C271.789 25.487 271.852 25.7812 271.977 26.0469C272.102 26.3125 272.286 26.5417 272.531 26.7344C272.781 26.9323 273.086 27.0885 273.445 27.2031C273.805 27.3177 274.221 27.375 274.695 27.375C275.154 27.375 275.573 27.3255 275.953 27.2266C276.339 27.1276 276.669 27.0052 276.945 26.8594C277.227 26.7135 277.44 26.5495 277.586 26.3672C277.737 26.1901 277.812 26.013 277.812 25.8359ZM282.039 15.5625H283.68V26H282.039V15.5625ZM288.312 26C287.708 26 287.201 25.9141 286.789 25.7422C286.378 25.5703 286.042 25.349 285.781 25.0781C285.526 24.8021 285.339 24.4896 285.219 24.1406C285.104 23.7865 285.047 23.4297 285.047 23.0703C285.047 22.612 285.12 22.1771 285.266 21.7656C285.417 21.3542 285.628 20.9922 285.898 20.6797C286.174 20.3672 286.503 20.1224 286.883 19.9453C287.263 19.763 287.68 19.6719 288.133 19.6719C288.56 19.6719 288.945 19.7448 289.289 19.8906C289.638 20.0312 289.932 20.2292 290.172 20.4844C290.417 20.7396 290.604 21.0469 290.734 21.4062C290.865 21.7604 290.93 22.151 290.93 22.5781V25.7812C290.93 26.3906 290.839 26.9115 290.656 27.3438C290.474 27.7812 290.214 28.1328 289.875 28.3984C289.542 28.6641 289.143 28.8594 288.68 28.9844C288.221 29.1094 287.716 29.1719 287.164 29.1719C286.956 29.1719 286.729 29.1641 286.484 29.1484C286.24 29.138 285.964 29.1094 285.656 29.0625L285.773 27.4297C286.06 27.4661 286.331 27.4948 286.586 27.5156C286.841 27.5365 287.057 27.5469 287.234 27.5469C287.51 27.5469 287.768 27.526 288.008 27.4844C288.247 27.4479 288.461 27.3724 288.648 27.2578C288.836 27.1484 288.987 26.9948 289.102 26.7969C289.216 26.599 289.284 26.3333 289.305 26H288.312ZM289.289 24.3047V23.0078C289.289 22.4557 289.18 22.0312 288.961 21.7344C288.742 21.4375 288.438 21.2891 288.047 21.2891C287.875 21.2891 287.708 21.3255 287.547 21.3984C287.385 21.4714 287.24 21.5755 287.109 21.7109C286.979 21.8411 286.875 21.9974 286.797 22.1797C286.719 22.362 286.68 22.5703 286.68 22.8047C286.68 23.0807 286.721 23.3151 286.805 23.5078C286.893 23.6953 287.01 23.849 287.156 23.9688C287.307 24.0885 287.479 24.1745 287.672 24.2266C287.87 24.2786 288.07 24.3047 288.273 24.3047H289.289ZM292.469 26V24.3047H296.445V22.8438C296.445 22.5104 296.406 22.2422 296.328 22.0391C296.25 21.8307 296.135 21.6693 295.984 21.5547C295.839 21.4401 295.656 21.362 295.438 21.3203C295.219 21.2786 294.971 21.2578 294.695 21.2578H293.289V19.6406H295.031C295.427 19.6406 295.812 19.6823 296.188 19.7656C296.562 19.8438 296.893 19.9948 297.18 20.2188C297.471 20.4375 297.701 20.7474 297.867 21.1484C298.039 21.5443 298.125 22.0625 298.125 22.7031V26H292.469ZM303.414 24.3047V23.0078C303.414 22.4557 303.31 22.0312 303.102 21.7344C302.893 21.4375 302.583 21.2891 302.172 21.2891C302 21.2891 301.833 21.3255 301.672 21.3984C301.51 21.4714 301.367 21.5755 301.242 21.7109C301.117 21.8411 301.013 21.9974 300.93 22.1797C300.852 22.362 300.812 22.5703 300.812 22.8047C300.812 23.0807 300.857 23.3151 300.945 23.5078C301.034 23.6953 301.151 23.849 301.297 23.9688C301.448 24.0885 301.617 24.1745 301.805 24.2266C301.997 24.2786 302.195 24.3047 302.398 24.3047H303.414ZM302.438 26C301.844 26 301.341 25.9141 300.93 25.7422C300.518 25.5703 300.18 25.349 299.914 25.0781C299.654 24.8021 299.464 24.4896 299.344 24.1406C299.229 23.7865 299.172 23.4297 299.172 23.0703C299.172 22.612 299.25 22.1771 299.406 21.7656C299.562 21.3542 299.776 20.9922 300.047 20.6797C300.318 20.3672 300.643 20.1224 301.023 19.9453C301.404 19.763 301.82 19.6719 302.273 19.6719C302.69 19.6719 303.07 19.7448 303.414 19.8906C303.763 20.0312 304.06 20.2292 304.305 20.4844C304.555 20.7396 304.745 21.0469 304.875 21.4062C305.005 21.7604 305.07 22.151 305.07 22.5781V24.3047H306.109C306.25 24.3047 306.349 24.3438 306.406 24.4219C306.469 24.5 306.5 24.5938 306.5 24.7031V25.5938C306.5 25.6719 306.469 25.7604 306.406 25.8594C306.349 25.9531 306.25 26 306.109 26H302.438ZM306.008 26C305.878 26 305.784 25.9609 305.727 25.8828C305.664 25.8047 305.633 25.7188 305.633 25.625V24.7578C305.633 24.6536 305.667 24.5521 305.734 24.4531C305.797 24.3542 305.888 24.3047 306.008 24.3047H308.008V20.2031H309.672V26H306.008ZM307.734 27.8359C307.734 27.6016 307.818 27.4036 307.984 27.2422C308.156 27.0807 308.37 27 308.625 27C308.865 27 309.07 27.0807 309.242 27.2422C309.414 27.4036 309.5 27.6016 309.5 27.8359C309.5 28.0807 309.414 28.2812 309.242 28.4375C309.07 28.599 308.865 28.6797 308.625 28.6797C308.37 28.6797 308.156 28.599 307.984 28.4375C307.818 28.2812 307.734 28.0807 307.734 27.8359ZM321.008 21.4922C321.138 21.7161 321.26 21.9766 321.375 22.2734C321.49 22.5703 321.594 22.875 321.688 23.1875C321.781 23.4948 321.854 23.8047 321.906 24.1172C321.958 24.4297 321.984 24.7188 321.984 24.9844C321.984 25.5312 321.896 26.0521 321.719 26.5469C321.542 27.0469 321.273 27.4844 320.914 27.8594C320.56 28.2344 320.12 28.5312 319.594 28.75C319.073 28.9688 318.469 29.0781 317.781 29.0781C317.021 29.0781 316.378 28.9714 315.852 28.7578C315.326 28.5443 314.901 28.2604 314.578 27.9062C314.26 27.5521 314.029 27.1484 313.883 26.6953C313.737 26.2422 313.664 25.7734 313.664 25.2891C313.664 24.8203 313.742 24.3464 313.898 23.8672C314.055 23.388 314.273 22.9427 314.555 22.5312L315.969 23.3281C315.74 23.6927 315.581 24.0286 315.492 24.3359C315.404 24.638 315.359 24.9557 315.359 25.2891C315.359 25.5495 315.406 25.8047 315.5 26.0547C315.599 26.3099 315.75 26.5365 315.953 26.7344C316.161 26.9323 316.422 27.0911 316.734 27.2109C317.052 27.3307 317.424 27.3906 317.852 27.3906C318.247 27.3906 318.599 27.3307 318.906 27.2109C319.214 27.0911 319.474 26.9323 319.688 26.7344C319.901 26.5365 320.06 26.3021 320.164 26.0312C320.273 25.7604 320.328 25.4635 320.328 25.1406C320.328 24.7031 320.245 24.2318 320.078 23.7266C319.911 23.2214 319.703 22.7734 319.453 22.3828L321.008 21.4922ZM316.906 19.5625C316.906 19.3281 316.99 19.1276 317.156 18.9609C317.323 18.7943 317.531 18.7109 317.781 18.7109C318.031 18.7109 318.24 18.7943 318.406 18.9609C318.578 19.1276 318.664 19.3281 318.664 19.5625C318.664 19.7917 318.578 19.9896 318.406 20.1562C318.24 20.3229 318.031 20.4062 317.781 20.4062C317.531 20.4062 317.323 20.3229 317.156 20.1562C316.99 19.9896 316.906 19.7917 316.906 19.5625ZM324.102 15.5625H325.742V26H324.102V15.5625ZM330.211 25.7656C330.211 26.2031 330.154 26.612 330.039 26.9922C329.924 27.3724 329.75 27.7031 329.516 27.9844C329.281 28.2656 328.995 28.487 328.656 28.6484C328.318 28.8099 327.924 28.8906 327.477 28.8906C327.289 28.8906 327.117 28.8828 326.961 28.8672C326.81 28.8516 326.674 28.8333 326.555 28.8125C326.487 28.8021 326.422 28.7917 326.359 28.7812C326.297 28.7708 326.232 28.7578 326.164 28.7422L326.359 27.0781L326.766 27.1641C326.88 27.1849 327 27.2031 327.125 27.2188C327.255 27.2344 327.372 27.2422 327.477 27.2422C327.904 27.2422 328.19 27.1042 328.336 26.8281C328.482 26.5573 328.555 26.1615 328.555 25.6406V20.2031H330.211V25.7656ZM328.727 32.0156L327.68 30.9062C327.549 30.7656 327.453 30.6172 327.391 30.4609C327.333 30.3203 327.305 30.1458 327.305 29.9375H328.109C328.115 30.3073 328.32 30.6953 328.727 31.1016C329.133 30.6953 329.339 30.3073 329.344 29.9375H330.148C330.148 30.1458 330.12 30.3203 330.062 30.4609C329.995 30.6172 329.896 30.7656 329.766 30.9062L328.727 32.0156ZM335.57 24.3047V23.0078C335.57 22.4557 335.466 22.0312 335.258 21.7344C335.049 21.4375 334.74 21.2891 334.328 21.2891C334.156 21.2891 333.99 21.3255 333.828 21.3984C333.667 21.4714 333.523 21.5755 333.398 21.7109C333.273 21.8411 333.169 21.9974 333.086 22.1797C333.008 22.362 332.969 22.5703 332.969 22.8047C332.969 23.0807 333.013 23.3151 333.102 23.5078C333.19 23.6953 333.307 23.849 333.453 23.9688C333.604 24.0885 333.773 24.1745 333.961 24.2266C334.154 24.2786 334.352 24.3047 334.555 24.3047H335.57ZM334.594 26C334 26 333.497 25.9141 333.086 25.7422C332.674 25.5703 332.336 25.349 332.07 25.0781C331.81 24.8021 331.62 24.4896 331.5 24.1406C331.385 23.7865 331.328 23.4297 331.328 23.0703C331.328 22.612 331.406 22.1771 331.562 21.7656C331.719 21.3542 331.932 20.9922 332.203 20.6797C332.474 20.3672 332.799 20.1224 333.18 19.9453C333.56 19.763 333.977 19.6719 334.43 19.6719C334.846 19.6719 335.227 19.7448 335.57 19.8906C335.919 20.0312 336.216 20.2292 336.461 20.4844C336.711 20.7396 336.901 21.0469 337.031 21.4062C337.161 21.7604 337.227 22.151 337.227 22.5781V24.3047H338.266C338.406 24.3047 338.505 24.3438 338.562 24.4219C338.625 24.5 338.656 24.5938 338.656 24.7031V25.5938C338.656 25.6719 338.625 25.7604 338.562 25.8594C338.505 25.9531 338.406 26 338.266 26H334.594ZM337.789 18.875L340.766 14.3438L341.961 15.1562L339.047 19.6562L337.789 18.875ZM338.109 26C337.979 26 337.885 25.9609 337.828 25.8828C337.766 25.8047 337.734 25.7188 337.734 25.625V24.7578C337.734 24.6536 337.768 24.5521 337.836 24.4531C337.898 24.3542 337.99 24.3047 338.109 24.3047H343.188V22.9219C343.188 22.5729 343.141 22.2995 343.047 22.1016C342.953 21.8984 342.828 21.7474 342.672 21.6484C342.521 21.5443 342.341 21.4818 342.133 21.4609C341.93 21.4349 341.711 21.4219 341.477 21.4219H339.695V19.9531L342.531 15.4609L343.898 16.375L341.672 19.8047H341.812C342.203 19.8047 342.583 19.849 342.953 19.9375C343.323 20.0208 343.646 20.1771 343.922 20.4062C344.198 20.6302 344.419 20.9375 344.586 21.3281C344.758 21.7135 344.844 22.2005 344.844 22.7891V26H338.109Z" fill="#787878"/>
<defs>
<clipPath id="clip0_33_28">
<rect width="25.7689" height="21.8645" fill="white" transform="translate(357.049 6) rotate(14.4612)"/>
</clipPath>
</defs>
</svg>
