<svg width="278" height="46" viewBox="0 0 278 46" fill="none" xmlns="http://www.w3.org/2000/svg">
<path d="M4.57617 31.2144L2.75244 32.8916L1.80029 31.7637L4.72266 29.3247H6.2168V39H4.57617V31.2144Z" fill="#4B4B4B"/>
<path d="M30.7124 37.2642L34.4697 33.6313C34.582 33.5239 34.6968 33.4092 34.814 33.2871C34.9312 33.1602 35.0361 33.0283 35.1289 32.8916C35.2266 32.7549 35.3071 32.6108 35.3706 32.4595C35.439 32.3081 35.4731 32.1519 35.4731 31.9907C35.4731 31.7905 35.4341 31.6147 35.356 31.4634C35.2778 31.3071 35.1753 31.1753 35.0483 31.0679C34.9214 30.9556 34.7725 30.8701 34.6016 30.8115C34.4355 30.748 34.2549 30.7163 34.0596 30.7163C33.6543 30.7163 33.3174 30.8335 33.0488 31.0679C32.7852 31.2974 32.6265 31.6196 32.5728 32.0347L30.8442 31.8955C30.8833 31.4512 30.9907 31.0581 31.1665 30.7163C31.3472 30.3696 31.5791 30.084 31.8623 29.8594C32.1455 29.6299 32.4727 29.4565 32.8438 29.3394C33.2148 29.2173 33.6201 29.1562 34.0596 29.1562C34.499 29.1562 34.9067 29.2148 35.2827 29.332C35.6587 29.4492 35.9883 29.6201 36.2715 29.8447C36.5547 30.0645 36.7793 30.3477 36.9453 30.6943C37.1113 31.041 37.1943 31.4463 37.1943 31.9102C37.1943 32.5156 37.0552 33.0405 36.7769 33.4849C36.4985 33.9292 36.1396 34.3516 35.7002 34.752L32.7046 37.5278H37.1943V39H30.7124V37.2642Z" fill="#4B4B4B"/>
<path d="M61.939 33.2212H62.3638C62.5933 33.2212 62.8228 33.2065 63.0522 33.1772C63.2817 33.1479 63.4844 33.0894 63.6602 33.0015C63.8359 32.9087 63.9775 32.7769 64.085 32.606C64.1973 32.4351 64.2534 32.2031 64.2534 31.9102C64.2534 31.5244 64.124 31.2168 63.8652 30.9873C63.6113 30.7529 63.2817 30.6357 62.8765 30.6357C62.5444 30.6357 62.249 30.731 61.9902 30.9214C61.7314 31.1069 61.5435 31.3657 61.4263 31.6978L59.6904 31.2363C59.7979 30.8848 59.9517 30.5771 60.1519 30.3135C60.3521 30.0449 60.5889 29.8276 60.8623 29.6616C61.1357 29.4907 61.436 29.3638 61.7632 29.2808C62.0952 29.1978 62.437 29.1562 62.7886 29.1562C63.2085 29.1562 63.604 29.2124 63.9751 29.3247C64.3511 29.437 64.6807 29.6006 64.9639 29.8154C65.2471 30.0254 65.4717 30.2915 65.6377 30.6138C65.8037 30.936 65.8867 31.3145 65.8867 31.749C65.8867 32.2617 65.7402 32.7231 65.4473 33.1333C65.1592 33.5386 64.7563 33.8047 64.2388 33.9316V33.9536C64.8687 34.0464 65.3398 34.3125 65.6523 34.752C65.9648 35.1865 66.1211 35.7065 66.1211 36.312C66.1211 36.7759 66.0308 37.186 65.8501 37.5425C65.6743 37.894 65.4351 38.1919 65.1323 38.436C64.8345 38.6753 64.4878 38.8584 64.0923 38.9854C63.6968 39.1074 63.2866 39.1685 62.8618 39.1685C62.4614 39.1685 62.083 39.1245 61.7266 39.0366C61.3701 38.9487 61.0479 38.8145 60.7598 38.6338C60.4717 38.4531 60.2227 38.2188 60.0127 37.9307C59.8076 37.6426 59.6489 37.2983 59.5366 36.8979L61.2871 36.4292C61.3896 36.8394 61.5679 37.1519 61.8218 37.3667C62.0757 37.5815 62.4224 37.689 62.8618 37.689C63.0767 37.689 63.2817 37.6523 63.4771 37.5791C63.6772 37.5059 63.8506 37.4033 63.9971 37.2715C64.1484 37.1396 64.2656 36.981 64.3486 36.7954C64.4365 36.605 64.4805 36.3975 64.4805 36.1729C64.4805 35.8604 64.4146 35.6064 64.2827 35.4111C64.1509 35.2158 63.9824 35.0669 63.7773 34.9644C63.5771 34.8569 63.3477 34.7861 63.0889 34.752C62.835 34.7129 62.5859 34.6934 62.3418 34.6934H61.939V33.2212Z" fill="#4B4B4B"/>
<path d="M92.4771 37.0298H88.3682V35.4038L92.2646 29.3247H94.1177V35.5576H95.5312V37.0298H94.1177V39H92.4771V37.0298ZM92.4771 31.6465H92.4551L90.0381 35.5576H92.4771V31.6465Z" fill="#4B4B4B"/>
<path d="M123.806 30.7969H119.91L119.873 32.7305C120 32.6865 120.161 32.6548 120.356 32.6353C120.552 32.6157 120.737 32.606 120.913 32.606C121.382 32.606 121.814 32.6816 122.209 32.833C122.61 32.9795 122.952 33.1943 123.235 33.4775C123.518 33.7607 123.738 34.0977 123.894 34.4883C124.055 34.8789 124.136 35.3208 124.136 35.814C124.136 36.3364 124.045 36.8052 123.865 37.2202C123.689 37.6304 123.442 37.9795 123.125 38.2676C122.812 38.5557 122.441 38.7778 122.012 38.9341C121.587 39.0903 121.128 39.1685 120.635 39.1685C119.863 39.1685 119.204 38.9854 118.657 38.6191C118.115 38.2529 117.732 37.6963 117.507 36.9492L119.229 36.4878C119.341 36.8345 119.526 37.1079 119.785 37.3081C120.049 37.5083 120.393 37.6084 120.818 37.6084C121.062 37.6084 121.287 37.5669 121.492 37.4839C121.697 37.4009 121.875 37.2861 122.026 37.1396C122.178 36.9883 122.292 36.8125 122.371 36.6123C122.454 36.4121 122.495 36.1924 122.495 35.9531C122.495 35.6162 122.432 35.3306 122.305 35.0962C122.183 34.8569 122.017 34.6616 121.807 34.5103C121.602 34.3589 121.362 34.2515 121.089 34.188C120.815 34.1196 120.53 34.0854 120.232 34.0854C119.875 34.0854 119.521 34.127 119.17 34.21C118.818 34.2881 118.496 34.3979 118.203 34.5396L118.298 29.3247H123.806V30.7969Z" fill="#4B4B4B"/>
<path d="M151.876 29.3247L149.554 32.9062L149.583 32.9355C149.681 32.877 149.813 32.8354 149.979 32.811C150.15 32.7817 150.318 32.7671 150.484 32.7671C150.909 32.7671 151.3 32.8501 151.656 33.0161C152.013 33.1821 152.32 33.4067 152.579 33.6899C152.843 33.9683 153.043 34.2954 153.18 34.6714C153.321 35.0425 153.392 35.438 153.392 35.8579C153.392 36.3706 153.304 36.8296 153.128 37.2349C152.958 37.6353 152.718 37.9795 152.411 38.2676C152.108 38.5557 151.744 38.7778 151.319 38.9341C150.899 39.0903 150.443 39.1685 149.95 39.1685C149.437 39.1685 148.971 39.0928 148.551 38.9414C148.136 38.79 147.774 38.5728 147.467 38.2896C147.164 38.0063 146.927 37.6597 146.756 37.2495C146.59 36.8394 146.507 36.3804 146.507 35.8726C146.507 35.3501 146.59 34.8862 146.756 34.481C146.927 34.0757 147.145 33.6558 147.408 33.2212L149.884 29.3247H151.876ZM148.229 35.8433C148.229 36.0874 148.272 36.3169 148.36 36.5317C148.453 36.7466 148.58 36.9346 148.741 37.0957C148.902 37.252 149.088 37.3765 149.298 37.4692C149.513 37.562 149.745 37.6084 149.994 37.6084C150.243 37.6084 150.472 37.562 150.682 37.4692C150.897 37.3765 151.083 37.252 151.239 37.0957C151.4 36.9346 151.524 36.7466 151.612 36.5317C151.705 36.3169 151.751 36.0874 151.751 35.8433C151.751 35.5991 151.705 35.3696 151.612 35.1548C151.524 34.9399 151.4 34.7544 151.239 34.5981C151.083 34.437 150.897 34.3125 150.682 34.2246C150.472 34.1318 150.243 34.0854 149.994 34.0854C149.745 34.0854 149.513 34.1318 149.298 34.2246C149.088 34.3125 148.902 34.437 148.741 34.5981C148.58 34.7544 148.453 34.9399 148.36 35.1548C148.272 35.3696 148.229 35.5991 148.229 35.8433Z" fill="#4B4B4B"/>
<path d="M175.485 29.3247H182.055V30.8262L178.195 39H176.269L180.217 30.8774H175.485V29.3247Z" fill="#4B4B4B"/>
<path d="M207.942 29.1562C208.357 29.1562 208.743 29.2148 209.1 29.332C209.461 29.4492 209.776 29.6152 210.044 29.8301C210.313 30.04 210.525 30.3037 210.682 30.6211C210.838 30.9336 210.916 31.2925 210.916 31.6978C210.916 32.2202 210.794 32.6768 210.55 33.0674C210.311 33.458 209.944 33.7266 209.451 33.873V33.9023C209.681 33.9463 209.9 34.0391 210.11 34.1807C210.325 34.3223 210.516 34.4956 210.682 34.7007C210.848 34.9058 210.977 35.1426 211.07 35.4111C211.167 35.6748 211.216 35.9556 211.216 36.2534C211.216 36.7368 211.128 37.1592 210.953 37.5205C210.782 37.8818 210.55 38.1846 210.257 38.4287C209.964 38.6729 209.617 38.8584 209.217 38.9854C208.821 39.1074 208.396 39.1685 207.942 39.1685C207.493 39.1685 207.068 39.1074 206.668 38.9854C206.272 38.8584 205.928 38.6729 205.635 38.4287C205.347 38.1846 205.115 37.8818 204.939 37.5205C204.769 37.1592 204.683 36.7368 204.683 36.2534C204.683 35.9556 204.729 35.6748 204.822 35.4111C204.92 35.1426 205.052 34.9058 205.218 34.7007C205.384 34.4956 205.569 34.3223 205.774 34.1807C205.984 34.0391 206.209 33.9463 206.448 33.9023V33.873C205.955 33.7266 205.586 33.458 205.342 33.0674C205.103 32.6768 204.983 32.2202 204.983 31.6978C204.983 31.2925 205.062 30.9336 205.218 30.6211C205.374 30.3037 205.586 30.04 205.855 29.8301C206.124 29.6152 206.436 29.4492 206.792 29.332C207.154 29.2148 207.537 29.1562 207.942 29.1562ZM207.942 30.5552C207.527 30.5552 207.203 30.6821 206.968 30.936C206.739 31.1899 206.624 31.5 206.624 31.8662C206.624 32.2471 206.741 32.5693 206.976 32.833C207.215 33.0918 207.537 33.2212 207.942 33.2212C208.128 33.2212 208.299 33.187 208.455 33.1187C208.616 33.0503 208.758 32.9551 208.88 32.833C209.007 32.7109 209.104 32.5669 209.173 32.4009C209.241 32.2349 209.275 32.0566 209.275 31.8662C209.275 31.5 209.148 31.1899 208.895 30.936C208.646 30.6821 208.328 30.5552 207.942 30.5552ZM207.942 34.5322C207.728 34.5322 207.52 34.5688 207.32 34.6421C207.12 34.7153 206.946 34.8203 206.8 34.957C206.658 35.0938 206.543 35.2549 206.456 35.4404C206.368 35.626 206.324 35.8286 206.324 36.0483C206.324 36.5122 206.475 36.8882 206.778 37.1763C207.085 37.4644 207.474 37.6084 207.942 37.6084C208.421 37.6084 208.812 37.4644 209.114 37.1763C209.422 36.8882 209.576 36.5122 209.576 36.0483C209.576 35.8286 209.532 35.626 209.444 35.4404C209.356 35.2549 209.239 35.0938 209.092 34.957C208.951 34.8203 208.78 34.7153 208.58 34.6421C208.379 34.5688 208.167 34.5322 207.942 34.5322Z" fill="#4B4B4B"/>
<path d="M235.023 39L237.345 35.4185L237.316 35.3892C237.218 35.4478 237.084 35.4917 236.913 35.521C236.747 35.5454 236.581 35.5576 236.415 35.5576C235.99 35.5576 235.6 35.4746 235.243 35.3086C234.887 35.1426 234.577 34.9204 234.313 34.6421C234.054 34.3589 233.854 34.0317 233.712 33.6606C233.576 33.2847 233.507 32.8867 233.507 32.4668C233.507 31.9639 233.593 31.5098 233.764 31.1045C233.939 30.6943 234.179 30.3452 234.481 30.0571C234.789 29.769 235.155 29.5469 235.58 29.3906C236.005 29.2344 236.461 29.1562 236.95 29.1562C237.453 29.1562 237.914 29.2319 238.334 29.3833C238.759 29.5347 239.123 29.752 239.425 30.0352C239.733 30.3184 239.97 30.665 240.136 31.0752C240.307 31.4854 240.392 31.9443 240.392 32.4521C240.392 32.9746 240.307 33.4385 240.136 33.8438C239.97 34.249 239.755 34.6689 239.491 35.1035L237.016 39H235.023ZM238.671 32.4814C238.671 32.2373 238.625 32.0078 238.532 31.793C238.444 31.5781 238.319 31.3926 238.158 31.2363C238.002 31.0752 237.816 30.9482 237.602 30.8555C237.387 30.7627 237.157 30.7163 236.913 30.7163C236.669 30.7163 236.437 30.7627 236.217 30.8555C236.002 30.9482 235.814 31.0752 235.653 31.2363C235.497 31.3926 235.373 31.5781 235.28 31.793C235.192 32.0078 235.148 32.2373 235.148 32.4814C235.148 32.7256 235.192 32.9551 235.28 33.1699C235.373 33.3848 235.497 33.5728 235.653 33.7339C235.814 33.8901 236.002 34.0146 236.217 34.1074C236.437 34.1953 236.669 34.2393 236.913 34.2393C237.157 34.2393 237.387 34.1953 237.602 34.1074C237.816 34.0146 238.002 33.8901 238.158 33.7339C238.319 33.5728 238.444 33.3848 238.532 33.1699C238.625 32.9551 238.671 32.7256 238.671 32.4814Z" fill="#4B4B4B"/>
<path d="M265.49 31.2144L263.667 32.8916L262.714 31.7637L265.637 29.3247H267.131V39H265.49V31.2144ZM270.449 34.166C270.449 33.3994 270.51 32.7451 270.632 32.2031C270.754 31.6611 270.915 31.2046 271.115 30.8335C271.315 30.4624 271.54 30.167 271.789 29.9473C272.043 29.7227 272.299 29.5542 272.558 29.4419C272.822 29.3296 273.073 29.2539 273.312 29.2148C273.552 29.1758 273.762 29.1562 273.942 29.1562C274.128 29.1562 274.34 29.1758 274.58 29.2148C274.824 29.2539 275.075 29.3296 275.334 29.4419C275.598 29.5542 275.854 29.7227 276.103 29.9473C276.352 30.167 276.577 30.4624 276.777 30.8335C276.977 31.2046 277.138 31.6611 277.26 32.2031C277.387 32.7451 277.451 33.3994 277.451 34.166C277.451 34.9277 277.387 35.5796 277.26 36.1216C277.138 36.6636 276.977 37.1201 276.777 37.4912C276.577 37.8623 276.352 38.1602 276.103 38.3848C275.854 38.6045 275.598 38.7705 275.334 38.8828C275.075 38.9951 274.824 39.0708 274.58 39.1099C274.34 39.1489 274.128 39.1685 273.942 39.1685C273.762 39.1685 273.552 39.1489 273.312 39.1099C273.073 39.0708 272.822 38.9951 272.558 38.8828C272.299 38.7705 272.043 38.6045 271.789 38.3848C271.54 38.1602 271.315 37.8623 271.115 37.4912C270.915 37.1201 270.754 36.6636 270.632 36.1216C270.51 35.5796 270.449 34.9277 270.449 34.166ZM272.089 34.166C272.089 34.4639 272.109 34.813 272.148 35.2134C272.192 35.6089 272.277 35.9849 272.404 36.3413C272.531 36.6929 272.717 36.9932 272.961 37.2422C273.21 37.4863 273.537 37.6084 273.942 37.6084C274.353 37.6084 274.68 37.4863 274.924 37.2422C275.173 36.9932 275.361 36.6929 275.488 36.3413C275.615 35.9849 275.7 35.6089 275.744 35.2134C275.788 34.813 275.81 34.4639 275.81 34.166C275.81 33.8633 275.788 33.5142 275.744 33.1187C275.7 32.7183 275.615 32.3423 275.488 31.9907C275.361 31.6392 275.173 31.3389 274.924 31.0898C274.68 30.8408 274.353 30.7163 273.942 30.7163C273.537 30.7163 273.21 30.8408 272.961 31.0898C272.717 31.3389 272.531 31.6392 272.404 31.9907C272.277 32.3423 272.192 32.7183 272.148 33.1187C272.109 33.5142 272.089 33.8633 272.089 34.166Z" fill="#4B4B4B"/>
<line x1="2" y1="10" x2="274" y2="10" stroke="#155DFC" stroke-width="2" stroke-linecap="round"/>
<path d="M244.914 10C244.914 14.6528 241.015 18.5 236.113 18.5C231.21 18.5 227.312 14.6528 227.312 10C227.312 5.34717 231.21 1.5 236.113 1.5C241.015 1.5 244.914 5.34717 244.914 10Z" fill="white" stroke="#155DFC" stroke-width="3"/>
</svg>
